<?xml version="1.0" encoding="UTF-8"?>
<!-- Generator: Adobe Illustrator 25.2.1, SVG Export Plug-In . SVG Version: 6.00 Build 0)  -->
<svg xmlns="http://www.w3.org/2000/svg" xmlns:xlink="http://www.w3.org/1999/xlink" version="1.1" id="Capa_1" x="0px" y="0px" viewBox="0 0 512 512" style="enable-background:new 0 0 512 512;" xml:space="preserve" width="512" height="512">
<g>
	<g>
		<g>
			<path style="fill-rule:evenodd;clip-rule:evenodd;fill:#A59AE8;" d="M474.287,262.811H360.919c-4.649,0-8.418-3.769-8.418-8.418     V170.55c0-4.649,3.769-8.418,8.418-8.418h113.368c4.649,0,8.418,3.769,8.418,8.418v83.843     C482.705,259.042,478.936,262.811,474.287,262.811z"/>
			<g>
				<polygon style="fill-rule:evenodd;clip-rule:evenodd;fill:#F9D87A;" points="445.536,255.968 439.631,247.657 429.531,246.275       443.801,222.715 459.805,232.412     "/>
				<polygon style="fill-rule:evenodd;clip-rule:evenodd;fill:#F9D87A;" points="460.344,255.968 466.25,247.657 476.349,246.275       462.078,222.715 446.076,232.412     "/>
				<path style="fill-rule:evenodd;clip-rule:evenodd;fill:#FFFFFF;" d="M467.58,228.6c0,8.148-6.605,14.751-14.751,14.751      c-8.15,0-14.753-6.603-14.753-14.751c0-8.145,6.603-14.751,14.753-14.751C460.975,213.848,467.58,220.455,467.58,228.6z"/>
			</g>
			<g>
				<g>
					<path style="fill:#FFFFFF;" d="M470.401,176.113H366.119c-0.968,0-1.752-0.784-1.752-1.75c0-0.966,0.784-1.75,1.752-1.75       h104.283c0.968,0,1.751,0.784,1.751,1.75C472.153,175.328,471.369,176.113,470.401,176.113z"/>
					<path style="fill:#FFFFFF;" d="M470.401,189.26H366.119c-0.968,0-1.752-0.784-1.752-1.75c0-0.969,0.784-1.75,1.752-1.75       h104.283c0.968,0,1.751,0.781,1.751,1.75C472.153,188.476,471.369,189.26,470.401,189.26z"/>
				</g>
				<g>
					<path style="fill:#FFFFFF;" d="M470.401,203.412H366.119c-0.968,0-1.752-0.781-1.752-1.75c0-0.966,0.784-1.75,1.752-1.75       h104.283c0.968,0,1.751,0.784,1.751,1.75C472.153,202.632,471.369,203.412,470.401,203.412z"/>
					<path style="fill:#FFFFFF;" d="M425.931,216.56h-59.813c-0.968,0-1.752-0.781-1.752-1.75c0-0.966,0.784-1.75,1.752-1.75h59.813       c0.966,0,1.75,0.784,1.75,1.75C427.681,215.779,426.898,216.56,425.931,216.56z"/>
					<path style="fill:#FFFFFF;" d="M425.931,230.199h-59.813c-0.968,0-1.752-0.78-1.752-1.75c0-0.966,0.784-1.75,1.752-1.75h59.813       c0.966,0,1.75,0.784,1.75,1.75C427.681,229.418,426.898,230.199,425.931,230.199z"/>
				</g>
			</g>
		</g>
		<g>
			<path style="fill-rule:evenodd;clip-rule:evenodd;fill:#F9D87A;" d="M418.912,176.449h-87.786     c-8.568,0-15.514-6.946-15.514-15.514V33.797c0-8.568,6.946-15.514,15.514-15.514h87.786c8.568,0,15.514,6.946,15.514,15.514     v127.139C434.426,169.504,427.48,176.449,418.912,176.449z"/>
			<path style="fill:#FFFFFF;" d="M420.299,41.995H329.99c-1.254,0-2.27-1.016-2.27-2.27c0-1.254,1.017-2.27,2.27-2.27h90.309     c1.254,0,2.27,1.016,2.27,2.27C422.57,40.979,421.553,41.995,420.299,41.995z"/>
			<path style="fill:#FFFFFF;" d="M420.299,60.662H329.99c-1.254,0-2.27-1.016-2.27-2.27c0-1.254,1.017-2.27,2.27-2.27h90.309     c1.254,0,2.27,1.016,2.27,2.27C422.57,59.646,421.553,60.662,420.299,60.662z"/>
			<path style="fill:#FFFFFF;" d="M420.299,79.329H329.99c-1.254,0-2.27-1.017-2.27-2.27c0-1.254,1.017-2.27,2.27-2.27h90.309     c1.254,0,2.27,1.017,2.27,2.27C422.57,78.312,421.553,79.329,420.299,79.329z"/>
			<path style="fill:#FFFFFF;" d="M420.299,97.997H329.99c-1.254,0-2.27-1.017-2.27-2.27c0-1.253,1.017-2.27,2.27-2.27h90.309     c1.254,0,2.27,1.017,2.27,2.27C422.57,96.98,421.553,97.997,420.299,97.997z"/>
			<path style="fill:#FFFFFF;" d="M391.289,116.664H329.99c-1.254,0-2.27-1.017-2.27-2.27c0-1.254,1.017-2.27,2.27-2.27h61.299     c1.253,0,2.27,1.017,2.27,2.27C393.56,115.647,392.543,116.664,391.289,116.664z"/>
			<path style="fill:#7C75D1;" d="M422.954,144.749c-3.565-1.865-8.057,0.069-10.024,1.493c-0.365-0.47-0.893-0.786-1.577-0.947     c0.134-0.318,0.291-0.656,0.454-1.01c0.819-1.775,1.836-3.983,1.502-6.189c-0.136-0.899-0.538-1.518-1.194-1.842     c-1.494-0.741-3.892,0.35-5.19,1.064c-3.352,1.848-6.82,4.736-9.27,6.892c-0.212-0.504-0.535-0.842-0.964-1.01     c-1.315-0.507-3.153,0.809-4.255,1.595l-0.111,0.078c-0.659,0.468-1.274,0.947-1.821,1.373c-0.109,0.086-0.217,0.169-0.322,0.25     c2.437-6.109,4.639-13.089,6.245-19.809c0.04-0.169,0.093-0.349,0.148-0.535c0.263-0.891,0.59-2.003-0.118-2.9l-0.1-0.129     l-0.163-0.015c-0.687-0.061-1.1,0.134-1.202,0.575l-0.671,2.423c-1.57,5.676-3.188,11.532-5.262,16.831     c-0.168-0.393-0.42-0.663-0.752-0.805c-0.895-0.387-2.258,0.248-4.051,1.867c-1.106,0.993-1.924,1.861-2.737,2.736     c-3.745,4.031-6.943,8.593-9.003,12.849c-1.007,2.078-2.692,5.556-2.143,8.867c0.204,1.23,0.85,2.156,1.818,2.612     c0.411,0.192,0.86,0.287,1.327,0.287c0.696,0,1.432-0.211,2.14-0.625c0.949-0.556,1.987-1.441,2.594-2.074     c0.845-0.88,1.564-1.988,2.258-3.06c0.198-0.306,0.395-0.61,0.596-0.911c2.077-3.101,4.057-6.666,6.054-10.898     c0.155-0.325,0.279-0.684,0.402-1.041c0.172-0.499,0.334-0.971,0.572-1.317c0.216-0.313,0.621-0.633,1.049-0.969     c0.281-0.222,0.563-0.445,0.809-0.677c1.676-1.59,3.558-3.377,5.583-4.162c-0.09,0.921-0.612,1.4-1.203,1.942     c-0.204,0.188-0.409,0.377-0.6,0.584c-2.731,2.977-5.566,6.424-7.829,11.516c-0.735,1.648-1.635,3.979-0.962,5.185     c0.22,0.396,0.596,0.64,1.083,0.707c1.565,0.192,3.092-1.948,4.012-3.238l0.165-0.232c1.373-1.908,2.44-3.751,2.835-4.455     c1.419-2.528,2.609-5.011,3.537-7.38c0.149-0.377,0.253-0.781,0.353-1.169c0.145-0.556,0.281-1.081,0.525-1.486     c0.14-0.237,0.448-0.486,0.775-0.751c0.226-0.183,0.46-0.374,0.671-0.581c2.647-2.594,5.429-4.771,8.292-6.489     c1.171-0.704,2.378-1.429,3.692-1.447c0.239,1.37-0.265,2.689-0.714,3.861l-0.136,0.356c-0.467,1.247-1.014,2.417-1.542,3.547     l-0.214,0.458c-2.312,1.722-5.192,4.148-7.161,7.698c-0.517,0.937-1.593,3.21-0.398,4.103c1.37,1.024,2.944-0.84,3.617-1.635     l0.111-0.13c1.509-1.755,2.693-3.423,3.958-5.58c0.194-0.333,0.368-0.683,0.541-1.029c0.516-1.042,0.971-1.957,1.896-2.229     c0.078,0.662,0.312,1.088,0.708,1.294c0.836,0.435,1.986-0.344,3.002-1.033c0.276-0.188,0.531-0.362,0.742-0.48     c1.922-1.076,4.619-1.996,6.752-0.442c-0.037,0.031-0.08,0.064-0.13,0.102c-0.273,0.207-0.686,0.519-0.548,1.283l0.023,0.129     l0.098,0.087c0.536,0.475,1.208,0.569,1.834,0.268c0.757-0.367,1.253-1.221,1.206-2.078     C424.514,145.961,423.718,145.149,422.954,144.749z M393.054,152.549c-0.607,1.351-1.376,2.824-2.347,4.501     c-0.927,1.604-1.951,3.374-3.168,4.764C388.824,158.183,390.905,155.282,393.054,152.549z M380.805,160.292     c-0.758,1.482-1.7,3.15-2.758,4.669c0.448-0.977,1.023-1.908,1.586-2.823l0.173-0.282     C380.137,161.317,380.47,160.797,380.805,160.292z M386.871,144.787c-0.225,1.616-0.746,3.06-1.253,4.461l-0.263,0.733     c-0.081,0.228-0.148,0.471-0.216,0.714c-0.108,0.395-0.211,0.766-0.362,1.035c-0.163,0.293-0.47,0.578-0.797,0.881     c-0.233,0.214-0.467,0.433-0.665,0.664c-2.192,2.557-4.687,5.58-6.576,9.109c-0.815,1.523-1.923,3.592-1.954,6.102l-0.111,0.074     c-0.485,0.322-0.948,0.618-1.401,0.475c-0.658-0.216-0.834-1.623-0.451-3.586c0.763-3.898,2.822-7.179,4.864-10.208     c1.327-1.964,2.898-3.898,4.399-5.695C383.342,148.039,384.991,146.178,386.871,144.787z"/>
		</g>
		<g>
			<path style="fill:#F9D87A;" d="M219.261,16.477c-2.57-2.083-5.813-3.229-9.13-3.224l-28.402,0.023     c-3.873,0.004-7.511,1.513-10.249,4.254c-2.737,2.741-4.243,6.386-4.237,10.262l0.003,4.639     c0.003,4.393,1.966,8.497,5.383,11.263c2.572,2.085,5.815,3.229,9.128,3.227l10.009-0.007c1.339-0.001,2.575,0.472,3.778,1.444     c0.902,0.736,1.667,1.651,2.34,2.463c0.315,0.382,0.614,0.739,0.906,1.058c0.165,0.18,0.342,0.378,0.535,0.589     c0.824,0.915,1.855,2.053,2.842,2.855c0.691,0.557,1.128,0.761,1.379,0.837c1.207,0.357,2.449-0.148,2.903-0.817     c0.295-0.441,0.28-0.945,0.215-1.948c-0.021-0.397-0.053-0.851-0.048-1.339c0-0.148-0.004-0.307-0.01-0.473     c-0.034-1.198-0.112-3.686,2.504-4.502c0.726-0.23,1.614-0.35,2.643-0.492c1.43-0.198,3.049-0.422,4.356-0.971     c5.191-2.188,8.545-7.382,8.539-13.231l-0.002-4.647C224.639,23.349,222.678,19.243,219.261,16.477"/>
			<g>
				<path style="fill:#FFFFFF;" d="M210.903,28.794c-0.461-0.372-1.018-0.566-1.613-0.566c-0.682-0.002-1.324,0.266-1.809,0.75      c-0.481,0.48-0.751,1.123-0.748,1.809c0,0.779,0.344,1.505,0.949,1.996c0.46,0.37,1.02,0.566,1.609,0.564      c1.413,0.005,2.563-1.147,2.563-2.56C211.854,30.013,211.51,29.285,210.903,28.794"/>
				<path style="fill:#FFFFFF;" d="M198.036,28.791c-0.46-0.372-1.016-0.569-1.612-0.568c-1.413-0.001-2.561,1.145-2.559,2.559      c-0.003,0.779,0.343,1.506,0.948,1.996c0.46,0.373,1.02,0.567,1.611,0.565c0.684,0.001,1.329-0.264,1.812-0.75      c0.484-0.481,0.75-1.124,0.751-1.811C198.989,30.006,198.642,29.28,198.036,28.791"/>
				<path style="fill:#FFFFFF;" d="M185.17,28.789c-0.461-0.374-1.017-0.569-1.612-0.568c-0.683-0.004-1.327,0.265-1.813,0.75      c-0.481,0.482-0.749,1.124-0.747,1.809c-0.002,0.779,0.343,1.504,0.947,1.995c0.462,0.373,1.019,0.568,1.611,0.569      c0.687-0.001,1.33-0.267,1.813-0.752c0.485-0.48,0.751-1.125,0.75-1.81C186.121,30.004,185.776,29.277,185.17,28.789"/>
			</g>
		</g>
	</g>
	<g>
		<g>
			<g>
				<path style="fill-rule:evenodd;clip-rule:evenodd;fill:#C4765B;" d="M221.099,182.191c-6.53,1.139-11.349-2.052-16.127-4.441      c-0.806-0.403-1.659-0.738-2.476-1.179c-0.791-0.426-1.521-1.095-2.267-1.361c-0.643-0.23-2.164-0.541-2.777-0.329      c-0.791,0.268-1.48,1.657-1.935,2.535c-1.052,2.04-1.772,3.798-3.109,5.524c-0.628,0.814-1.414,1.797-2.599,1.935      c-1.23-2.313-0.169-4.898,0.363-7.28c0.449-2.024,0.857-5.245,2.205-6.583c1.215-1.205,4.176-1.69,6.07-2.414      c0.74-0.283,16.081-4.641,16.974-4.562c0.5,0.041,1.547,1.146,2.231,1.751c4.329,3.803-2.634,10.621,1.664,14.409      c0.342,0.299,0.7,0.707,1.026,1.026C220.614,181.487,221.217,181.676,221.099,182.191z"/>
			</g>
			<path style="fill-rule:evenodd;clip-rule:evenodd;fill:#7C75D1;" d="M262.39,183.345c-12.201,4.661-26.388,7.334-42.5,8.079     c-2.236-9.355-3.528-19.658-5.268-29.505c13.437-2.785,26.307-7.433,36.879-13.697c1.858-1.098,3.946-1.922,4.916-3.512     c0.296-0.066,0.332,0.138,0.352,0.352c0.234,0,0.47,0,0.699,0C257.463,159.473,259.842,171.494,262.39,183.345z"/>
		</g>
		<g>
			<g>
				<g>
					<g>
						<g>
							<path style="fill-rule:evenodd;clip-rule:evenodd;fill:#DB9171;" d="M104.467,465.381l-2.956,29.538l21.616,10.649         c0,0,16.653-8.566,13.778-10.123c-1.169-0.628-6.065-2.803-7.193-7.316c-1.873-7.453,1.128-20.977,1.128-20.977         L104.467,465.381z"/>
						</g>
						<path style="fill:#2C8952;" d="M101.905,491.029c4.492,3.87,10.302,6.249,16.586,6.249c5.932,0,8.607-2.308,12.988-5.794        c0.005,0.005,0.005,0.02,0.01,0.031c1.041,2.318,15.045,3.849,17.725,4.911c0.96,0.383,1.966,0.73,2.951,1.072        c0.756,0.265,1.496,0.536,2.216,0.822c0.005,0.005,0.01,0.005,0.015,0.01c0.291,0.117,0.577,0.235,0.853,0.362        c0.056,0.026,0.113,0.051,0.169,0.072c0.24,0.112,0.48,0.23,0.715,0.347c0.112,0.061,0.214,0.122,0.327,0.184        c0.179,0.102,0.363,0.194,0.536,0.306c0.133,0.082,0.25,0.173,0.378,0.26c0.138,0.097,0.286,0.184,0.419,0.291        c0.689,0.536,1.348,1.22,1.925,2.022c1.72,2.41,2.634,5.861,1.041,9.531c0,0-4.293,0.117-6.432,0.153        c-0.648,0.016-1.302,0.016-1.955,0.026l-0.669,0.015l-0.005-0.005c-12.436,0.184-32.474,0.087-45.236,0.025        c-2.318-0.01-5.325,0.357-6.065-0.694c-0.117-0.163-0.184-0.393-0.23-0.649c-0.158-0.919,0.051-2.343,0.179-3.696        C100.68,503.24,101.303,497.012,101.905,491.029z"/>
					</g>
					<g>
						<path style="fill-rule:evenodd;clip-rule:evenodd;fill:#A59AE8;" d="M119.334,219.872c-0.235,0-0.47,0-0.704,0        c0.153,43.577-6.407,84.85-9.833,126.794c-3.4,41.612-8.572,102.266-12.707,143.628c15.617,1.863,31.958-0.225,46.36-1.756        c1.328-21.692-0.301-63.6-0.638-85.675c-0.327-21.288-1.302-42.781-4.212-63.574c-4.901-34.922-9.154-68.774-14.754-103.961        C122.014,230.093,121.524,223.219,119.334,219.872z"/>
						<path style="fill-rule:evenodd;clip-rule:evenodd;fill:#7C75D1;" d="M121.09,224.789c-0.296-0.061-0.332,0.138-0.352,0.355        c-6.846,80.378-15.305,161.915-22.146,239.186c10.976-33.04,15.336-71.809,21.095-113.094        c3.921-28.147,6.264-61.869,4.916-95.535C124.168,244.816,123.168,234.601,121.09,224.789z"/>
						<g>
							<path style="fill-rule:evenodd;clip-rule:evenodd;fill:#FFFFFF;" d="M137.911,472.273c-0.98,1.307-1.235,4.059-1.327,6.774         c-0.041,1.164-0.072,3.043,0.965,3.196c1.24,0.184,1.618-1.945,1.751-2.711c0.413-2.415,0.428-5.417-0.031-7.015         C139.019,472.227,138.34,472.13,137.911,472.273z"/>
							<path style="fill-rule:evenodd;clip-rule:evenodd;fill:#FFFFFF;" d="M133.96,478.797c-2.491-0.873-3.456,4.82-1.271,4.947         c0.949,0.046,2.445-2.527,2.215-3.936C134.817,479.303,134.394,478.95,133.96,478.797z"/>
						</g>
					</g>
				</g>
				<g>
					<g>
						<g>
							<path style="fill-rule:evenodd;clip-rule:evenodd;fill:#DB9171;" d="M58.976,465.381l-2.956,29.538l21.615,10.649         c0,0,16.658-8.566,13.779-10.123c-1.164-0.628-6.06-2.803-7.188-7.316c-1.873-7.453,1.128-20.977,1.128-20.977         L58.976,465.381z"/>
						</g>
						<path style="fill:#69AF7A;" d="M56.418,491.029c4.493,3.87,10.297,6.249,16.581,6.249c5.937,0,8.607-2.308,12.988-5.794        c0.005,0.005,0.005,0.02,0.01,0.031c1.047,2.318,15.05,3.849,17.725,4.911c0.965,0.383,1.97,0.73,2.951,1.072        c0.761,0.265,1.501,0.536,2.221,0.822c0.005,0.005,0.01,0.005,0.015,0.01c0.291,0.117,0.572,0.235,0.853,0.362        c0.056,0.026,0.112,0.051,0.163,0.072c0.245,0.112,0.485,0.23,0.715,0.347c0.112,0.061,0.219,0.122,0.332,0.184        c0.178,0.102,0.362,0.194,0.536,0.306c0.128,0.082,0.25,0.173,0.378,0.26c0.133,0.097,0.286,0.184,0.418,0.291        c0.684,0.536,1.348,1.22,1.92,2.022c1.72,2.41,2.634,5.861,1.047,9.531c0,0-4.294,0.117-6.432,0.153        c-0.653,0.016-1.302,0.016-1.955,0.026l-0.674,0.015v-0.005c-12.436,0.184-32.474,0.087-45.236,0.025        c-2.318-0.01-5.325,0.357-6.065-0.694c-0.118-0.163-0.189-0.393-0.235-0.649c-0.158-0.919,0.056-2.343,0.184-3.696        C55.193,503.24,55.811,497.012,56.418,491.029z"/>
					</g>
					<g>
						<path style="fill-rule:evenodd;clip-rule:evenodd;fill:#A59AE8;" d="M63.101,217.064        c-10.598,12.944-12.007,36.341-6.32,55.493c0.715,2.415,2.027,4.73,2.456,7.025c0.694,3.701,0.449,7.925,0.704,11.946        c1.669,26.166,2.685,58.615-0.704,83.589c-4.069,30.059-11.257,78.221-11.114,109.592c14.861,2.578,29.288,5.6,46.013,6.32        c6.545-38.564,18.46-96.564,22.003-139.094c3.216-38.648,6.795-79.226,6.257-119.73l-6.032-10.653        C97.039,220.151,83.312,217.577,63.101,217.064z"/>
						<g>
							<path style="fill-rule:evenodd;clip-rule:evenodd;fill:#FFFFFF;" d="M51.951,480.711c1.394-0.858,4.156-0.868,6.866-0.715         c1.164,0.071,3.038,0.204,3.099,1.251c0.071,1.25-2.088,1.434-2.859,1.496c-2.44,0.204-5.437-0.056-6.983-0.659         C51.803,481.809,51.772,481.12,51.951,480.711z"/>
							<path style="fill-rule:evenodd;clip-rule:evenodd;fill:#FFFFFF;" d="M58.807,477.362c-0.648-2.553,5.105-3.007,5.034-0.817         c-0.026,0.944-2.731,2.205-4.115,1.848C59.231,478.261,58.92,477.812,58.807,477.362z"/>
						</g>
						<g>
							<path style="fill-rule:evenodd;clip-rule:evenodd;fill:#FFFFFF;" d="M106.27,355.513c-0.98,1.312-1.241,4.064-1.327,6.78         c-0.041,1.159-0.077,3.043,0.96,3.196c1.246,0.184,1.623-1.95,1.756-2.711c0.414-2.415,0.429-5.422-0.03-7.014         C107.372,355.467,106.693,355.37,106.27,355.513z"/>
							<path style="fill-rule:evenodd;clip-rule:evenodd;fill:#FFFFFF;" d="M102.318,362.042c-2.491-0.873-3.461,4.814-1.271,4.942         c0.945,0.051,2.445-2.522,2.216-3.936C103.171,362.548,102.752,362.196,102.318,362.042z"/>
							<path style="fill-rule:evenodd;clip-rule:evenodd;fill:#FFFFFF;" d="M102.18,377.011c-0.847-0.403-1.858,0.506-2.461,1.72         c-0.49,0.975-0.975,3.068,0.265,3.247c0.552,0.077,1.455-0.541,1.986-1.537C102.594,379.272,103.273,377.527,102.18,377.011z         "/>
						</g>
					</g>
				</g>
			</g>
			<g>
				<g>
					<path style="fill-rule:evenodd;clip-rule:evenodd;fill:#DB9171;" d="M111.707,71.79c7.938,1.629,13.712-0.503,15.938-10.003       c0.801-3.441,1.286-8.47,2.093-13.125c1.48-8.508,1.761-14.789-1.246-20.193c-1.991-3.589-5.529-6.279-8.71-8.063       c-3.257-1.823-8.914-2.412-11.905-2.144c-7.928,0.717-16.74,8.212-17.613,19.014c-0.342,4.227,0.322,8.186,1.159,11.678       c1.378,5.667,0.822,9.848-0.541,16.352c-0.567,2.724-2.18,8.658-2.18,8.658c-2.833,9.056,15.087,14.373,18.886,10.646       L111.707,71.79"/>
					<g>
						<path style="fill-rule:evenodd;clip-rule:evenodd;fill:#7C75D1;" d="M99.148,53.739c-0.914,3.793-3.257,6.266-7.377,5.621        c-6.545-1.018-14.295-22.611-9.48-33.367c1.649-3.686,4.794-6.037,9.128-7.024c4.079-5.496,6.841-8.459,15.458-9.13        c11.313-0.878,29.901,1.33,31.259,8.781c1.179,6.463-4.742,10.976-8.428,12.643c-2.093,0.949-5.406,1.685-8.081,2.108        c-3.063,0.485-6.611-0.041-8.776,1.054c-1.858,0.934-3.145,4.541-3.865,7.377c-0.48,1.869-0.495,7.175-3.87,7.375        c-4.4,0.263-3.318-7.915-7.724-8.079c-4.049-0.146-4.789,5.577-3.16,9.133C95.309,52.577,97.259,52.937,99.148,53.739z"/>
						<g>
							<path style="fill-rule:evenodd;clip-rule:evenodd;fill:#FFFFFF;" d="M88.33,26.862c-0.996-2.287-4.748,2.55-3.344,3.773         c1.644,1.43,3.431-2.18,3.425-3.548C88.407,27.003,88.366,26.942,88.33,26.862z"/>
							<path style="fill-rule:evenodd;clip-rule:evenodd;fill:#FFFFFF;" d="M87.871,33.157c-1.052-1.723-4.436,2.175-2.629,3.219         C86.615,37.17,88.601,34.349,87.871,33.157z"/>
						</g>
						<g>
							<path style="fill-rule:evenodd;clip-rule:evenodd;fill:#FFFFFF;" d="M129.263,14.845c0.266-2.481,5.294,1.016,4.319,2.601         c-1.144,1.856-3.931-1.057-4.324-2.363C129.233,14.998,129.253,14.926,129.263,14.845z"/>
							<path style="fill-rule:evenodd;clip-rule:evenodd;fill:#FFFFFF;" d="M131.581,20.716c0.49-1.961,4.88,0.748,3.467,2.284         C133.975,24.167,131.239,22.069,131.581,20.716z"/>
						</g>
					</g>
					<g>
						<g>
							<g>
								<g>
									<path style="fill-rule:evenodd;clip-rule:evenodd;fill:#FFFFFF;" d="M119.4,40.909c5.156-4.03,8.735,0.288,8.735,0.288           s-1.389,1.572-4.457,1.611C121.401,42.837,119.4,40.909,119.4,40.909"/>
									<path style="fill-rule:evenodd;clip-rule:evenodd;fill:#7C75D1;" d="M128.135,41.198c0,0-1.736-2.108-4.569-2.004           c-0.117,0.207-0.383,0.605-0.429,0.845c-0.214,1.077,0.414,2.157,1.465,2.701           C127.022,42.448,128.135,41.198,128.135,41.198"/>
								</g>
								<path style="fill:#7C75D1;" d="M118.604,38.9c3.211-3.053,7.852-2.259,9.48-1.432l0.715-1.401          c-2.563-1.312-7.76-1.649-11.288,1.69L118.604,38.9z"/>
							</g>
							<path style="fill-rule:evenodd;clip-rule:evenodd;fill:#C4765B;" d="M130.356,40.748c-1.317-0.337-2.042,9.102-1.618,12.867         c1.634,0.677,3.962,0.508,4.692-0.819C134.889,50.173,131.612,41.075,130.356,40.748"/>
							<path style="fill:#C4765B;" d="M111.656,46.553c-0.735,2.463,0.664,5.059,3.124,5.794c2.466,0.733,5.059-0.671,5.794-3.129         c0.735-2.461-0.664-5.059-3.124-5.792C114.984,42.691,112.391,44.09,111.656,46.553"/>
						</g>
						<path style="fill:#C4765B;" d="M119.339,55.5l-1.491,1.036c2.114,3.02,5.948,5.46,9.935,4.587        c0.133-0.62,0.256-1.276,0.373-1.976C124.704,60.36,121.218,58.198,119.339,55.5z"/>
						<path style="fill-rule:evenodd;clip-rule:evenodd;fill:#C4765B;" d="M111.707,71.79c0,0-7.566-2.79-11.956-7.272        c0,0-0.14,10.929,9.724,14.222L111.707,71.79z"/>
					</g>
				</g>
				<g>
					<path style="fill-rule:evenodd;clip-rule:evenodd;fill:#69AF7A;" d="M73.454,87.539c1.103,0.018-0.026,1.57-0.455,2.795       c-5.422,15.721-7.173,37.484-9.827,57.28c-2.813,20.99-5.795,43.526-6.285,65.846c-0.694,1.154-1.43-0.541-1.731-0.766       c-4.651-3.523-9.072-7.591-13.611-12.099c-4.548-4.515-10.047-11.157-11.655-17.648c-2.323-9.396,2.635-20.39,6.386-30.345       c6.147-16.308,11.747-29.127,19.195-44.282c1.532-3.122,3.278-6.948,5.299-10.353C63.739,92.984,67.072,87.287,73.454,87.539z"/>
					<g>
						<path style="fill-rule:evenodd;clip-rule:evenodd;fill:#F9D87A;" d="M62.07,230.504c19.292,3.079,41.03,3.227,60.383,1.7        c-1.118-27.586,5.049-53.54,6.351-81.075c1.317-27.922-7.913-52.703-23.882-64.629c-3.972-2.966-10.328-5.84-16.51-6.32        c-2.226-0.174-6.734-0.207-9.48,0.702c-9.501,3.132-14.682,16.076-17.562,27.044C51.885,144.061,56.964,195.388,62.07,230.504        z"/>
						<g>
							<path style="fill-rule:evenodd;clip-rule:evenodd;fill:#2C8952;" d="M35.028,262.467         c19.486,5.452,39.774,10.098,62.869,11.946c7.98-26.225,14.453-56.634,18.613-92.375         c3.865-33.198,4.533-74.714-12.645-93.779c-4.646-5.167-14.539-12.135-24.234-8.431c-1.771,0.677-4.691,2.706-6.32,4.214         c-8.684,8.033-13.513,22.71-16.51,37.931c-3.012,15.315-4.661,32.18-7.025,47.067         C44.559,201.928,38.376,231.701,35.028,262.467z"/>
							<g>
								<path style="fill-rule:evenodd;clip-rule:evenodd;fill:#FFFFFF;" d="M45.912,233.437c0.531,1.547-0.056,4.242-0.801,6.856          c-0.316,1.118-0.863,2.92-1.894,2.752c-1.241-0.207-0.95-2.351-0.843-3.119c0.342-2.425,1.241-5.289,2.175-6.675          C44.875,233.054,45.554,233.169,45.912,233.437z"/>
								<path style="fill-rule:evenodd;clip-rule:evenodd;fill:#FFFFFF;" d="M47.683,240.857c2.634-0.074,1.822,5.641-0.296,5.095          c-0.924-0.243-1.562-3.153-0.909-4.421C46.713,241.076,47.224,240.87,47.683,240.857z"/>
								<path style="fill-rule:evenodd;clip-rule:evenodd;fill:#FFFFFF;" d="M43.242,255.154c0.929-0.128,1.613,1.047,1.823,2.389          c0.163,1.077-0.01,3.219-1.251,3.009c-0.546-0.094-1.215-0.96-1.419-2.07C42.154,257.178,42.047,255.31,43.242,255.154z"/>
							</g>
						</g>
					</g>
					<g>
						<path style="fill-rule:evenodd;clip-rule:evenodd;fill:#69AF7A;" d="M109.685,94.835c-2.017,2.188-24.831-2.476-31.611-3.862        c-2.813-0.574-7.954-1.646-8.429-3.865c-0.567-2.642,7.796-14.662,10.532-16.158C84.655,68.518,118.399,85.403,109.685,94.835        z"/>
						<g>
							<g>
								<path style="fill-rule:evenodd;clip-rule:evenodd;fill:#DB9171;" d="M197.8,168.826c0.541,1.846,2.787,6.134,3.094,6.473          c0.378,0.419,1.435,0.914,2.267,1.363c4.1,2.198,7.923,3.285,12.048,5.585c1.225,0.684,3.773,1.856,3.783,3.808          c0,1.44-2.455,2.417-4.023,1.904c1.521,2.491-1.43,4.296-3.716,3.624c1.271,1.902-0.654,4.434-3.078,3.589          c0.49,1.355-0.051,2.3-0.786,3.022c-2.936,0.804-5.672,0.163-8.153-0.27c-2.512-0.442-4.962-0.986-7.341-1.634          c-2.302-0.628-4.666-1.7-7.157-1.935c-2.67-0.248-6.075,0.383-8.485,0.454c-1.409-6.695-2.665-13.304-4.11-20.028          c2.788-0.097,5.386-0.393,7.913-1.205c3.655-1.177,6.851-3.711,10.241-4.743C192.939,168.035,195.4,168.104,197.8,168.826z"/>
								<g>
									<path style="fill-rule:evenodd;clip-rule:evenodd;fill:#69AF7A;" d="M174.137,173.668           c-13.871,1.654-27.838,3.305-43.021,2.417c-7.29-20.98-16.494-46.679-25.638-68.138           c-3.027-7.101-6.805-15.512-13.35-17.911c-8.919-3.272-19.063,1.519-22.126,6.675c-6.121,10.297,0.056,26.797,3.16,36.877           c4.656,15.091,11.094,30.47,17.562,43.554c3.349,6.769,6.836,13.661,11.589,18.965           c7.367,8.207,17.633,10.889,31.616,10.889c17.419,0,32.402-2.32,46.63-5.639           C178.089,192.215,175.995,182.967,174.137,173.668z"/>
									<path style="fill:#2C8952;" d="M118.241,173.178c0.893,1.534,3.364,1.384,5.616,1.754c2.016,0.332,4.36,0.944,6.325,1.054           c0.286,0.016,0.602,0.043,0.924,0.071c-0.694-2.004-1.414-4.066-2.144-6.149c-0.516,0.01-1.047,0.046-1.593,0.105           C123.882,170.404,118.359,170.439,118.241,173.178z"/>
								</g>
							</g>
							<g>
								<path style="fill-rule:evenodd;clip-rule:evenodd;fill:#FFFFFF;" d="M66.552,109.606c1.128-1.187,1.705-3.885,2.124-6.573          c0.174-1.151,0.429-3.015-0.582-3.285c-1.21-0.332-1.838,1.741-2.057,2.481c-0.705,2.351-1.072,5.33-0.807,6.971          C65.449,109.52,66.113,109.698,66.552,109.606z"/>
								<path style="fill-rule:evenodd;clip-rule:evenodd;fill:#FFFFFF;" d="M71.243,103.59c2.374,1.167,4.007-4.37,1.848-4.753          c-0.934-0.166-2.726,2.216-2.66,3.64C70.452,102.993,70.83,103.389,71.243,103.59z"/>
							</g>
						</g>
					</g>
				</g>
			</g>
		</g>
		<g>
			<g>
				<g>
					<g>
						<g>
							<path style="fill-rule:evenodd;clip-rule:evenodd;fill:#DB9171;" d="M267.74,465.381l2.951,29.538l-21.61,10.649         c0,0-16.653-8.566-13.779-10.123c1.164-0.628,6.06-2.803,7.193-7.316c1.869-7.453-1.133-20.977-1.133-20.977L267.74,465.381z         "/>
						</g>
						<path style="fill:#7C75D1;" d="M270.303,491.029c-4.498,3.87-10.302,6.249-16.587,6.249c-5.932,0-8.607-2.308-12.993-5.794        c-0.005,0.005-0.005,0.02-0.005,0.031c-1.046,2.318-15.05,3.849-17.725,4.911c-0.965,0.383-1.971,0.73-2.951,1.072        c-0.756,0.265-1.501,0.536-2.216,0.822c-0.005,0.005-0.01,0.005-0.02,0.01c-0.286,0.117-0.572,0.235-0.853,0.362        c-0.051,0.026-0.107,0.051-0.163,0.072c-0.245,0.112-0.485,0.23-0.715,0.347c-0.117,0.061-0.22,0.122-0.332,0.184        c-0.179,0.102-0.363,0.194-0.531,0.306c-0.133,0.082-0.255,0.173-0.378,0.26c-0.138,0.097-0.291,0.184-0.424,0.291        c-0.684,0.536-1.348,1.22-1.92,2.022c-1.725,2.41-2.634,5.861-1.046,9.531c0,0,4.293,0.117,6.432,0.153        c0.654,0.016,1.307,0.016,1.955,0.026l0.674,0.015v-0.005c12.436,0.184,32.479,0.087,45.242,0.025        c2.318-0.01,5.32,0.357,6.065-0.694c0.112-0.163,0.184-0.393,0.23-0.649c0.158-0.919-0.056-2.343-0.179-3.696        C271.523,503.24,270.905,497.012,270.303,491.029z"/>
					</g>
					<g>
						<path style="fill-rule:evenodd;clip-rule:evenodd;fill:#69AF7A;" d="M252.869,219.872c0.235,0,0.475,0,0.71,0        c-0.153,43.577,6.402,84.85,9.832,126.794c3.4,41.612,8.566,102.266,12.707,143.628c-15.622,1.863-31.958-0.225-46.365-1.756        c-1.322-21.692,0.301-63.6,0.638-85.675c0.327-21.288,1.302-42.781,4.217-63.574c4.901-34.922,9.148-68.774,14.754-103.961        C250.194,230.093,250.679,223.219,252.869,219.872z"/>
						<path style="fill-rule:evenodd;clip-rule:evenodd;fill:#2C8952;" d="M251.113,224.789c0.301-0.061,0.332,0.138,0.352,0.355        c6.851,80.378,15.31,161.915,22.146,239.186c-10.971-33.04-15.336-71.809-21.089-113.094        c-3.926-28.147-6.264-61.869-4.916-95.535C248.039,244.816,249.04,234.601,251.113,224.789z"/>
						<g>
							<path style="fill-rule:evenodd;clip-rule:evenodd;fill:#FFFFFF;" d="M234.291,472.273c0.98,1.307,1.24,4.059,1.332,6.774         c0.036,1.164,0.071,3.043-0.965,3.196c-1.241,0.184-1.619-1.945-1.751-2.711c-0.419-2.415-0.434-5.417,0.025-7.015         C233.189,472.227,233.867,472.13,234.291,472.273z"/>
							<path style="fill-rule:evenodd;clip-rule:evenodd;fill:#FFFFFF;" d="M238.243,478.797c2.491-0.873,3.461,4.82,1.271,4.947         c-0.944,0.046-2.44-2.527-2.211-3.936C237.39,479.303,237.814,478.95,238.243,478.797z"/>
						</g>
					</g>
				</g>
				<g>
					<g>
						<g>
							<path style="fill-rule:evenodd;clip-rule:evenodd;fill:#DB9171;" d="M313.232,465.381l2.951,29.538l-21.615,10.649         c0,0-16.653-8.566-13.779-10.123c1.169-0.628,6.06-2.803,7.198-7.316c1.869-7.453-1.138-20.977-1.138-20.977L313.232,465.381         z"/>
						</g>
						<path style="fill:#A59AE8;" d="M315.789,491.029c-4.492,3.87-10.297,6.249-16.586,6.249c-5.932,0-8.607-2.308-12.987-5.794        c0,0-0.005,0.02-0.01,0.031c-1.047,2.318-15.045,3.849-17.72,4.911c-0.965,0.383-1.976,0.73-2.956,1.072        c-0.755,0.265-1.496,0.536-2.216,0.822c-0.005,0.005-0.01,0.005-0.016,0.01c-0.291,0.117-0.577,0.235-0.857,0.362        c-0.051,0.026-0.107,0.051-0.163,0.072c-0.24,0.112-0.48,0.23-0.715,0.347c-0.112,0.061-0.219,0.122-0.332,0.184        c-0.179,0.102-0.357,0.194-0.531,0.306c-0.133,0.082-0.25,0.173-0.378,0.26c-0.138,0.097-0.291,0.184-0.419,0.291        c-0.684,0.536-1.348,1.22-1.919,2.022c-1.725,2.41-2.639,5.861-1.047,9.531c0,0,4.288,0.117,6.433,0.153        c0.648,0.016,1.302,0.016,1.955,0.026l0.669,0.015v-0.005c12.441,0.184,32.479,0.087,45.242,0.025        c2.318-0.01,5.319,0.357,6.065-0.694c0.117-0.163,0.188-0.393,0.23-0.649c0.158-0.919-0.056-2.343-0.179-3.696        C317.015,503.24,316.392,497.012,315.789,491.029z"/>
					</g>
					<g>
						<path style="fill-rule:evenodd;clip-rule:evenodd;fill:#69AF7A;" d="M308.707,210.171        c10.598,12.944,12.402,43.235,6.72,62.386c-0.72,2.415-2.027,4.73-2.461,7.025c-0.694,3.701-0.444,7.925-0.705,11.946        c-1.664,26.166-2.68,58.615,0.705,83.589c4.074,30.059,11.262,78.221,11.119,109.592c-14.866,2.578-29.288,5.6-46.018,6.32        c-6.545-38.564-18.46-96.564-22.003-139.094c-3.533-42.46-7.53-86.456-5.993-130.916        C269.394,219.617,288.496,210.684,308.707,210.171z"/>
						<g>
							<path style="fill-rule:evenodd;clip-rule:evenodd;fill:#FFFFFF;" d="M320.256,480.711c-1.394-0.858-4.155-0.868-6.871-0.715         c-1.159,0.071-3.038,0.204-3.099,1.251c-0.066,1.25,2.093,1.434,2.859,1.496c2.445,0.204,5.437-0.056,6.989-0.659         C320.399,481.809,320.435,481.12,320.256,480.711z"/>
							<path style="fill-rule:evenodd;clip-rule:evenodd;fill:#FFFFFF;" d="M313.4,477.362c0.643-2.553-5.11-3.007-5.034-0.817         c0.026,0.944,2.731,2.205,4.11,1.848C312.971,478.261,313.283,477.812,313.4,477.362z"/>
						</g>
						<g>
							<path style="fill-rule:evenodd;clip-rule:evenodd;fill:#FFFFFF;" d="M265.938,355.513c0.98,1.312,1.236,4.064,1.327,6.78         c0.041,1.159,0.072,3.043-0.965,3.196c-1.241,0.184-1.619-1.95-1.751-2.711c-0.419-2.415-0.434-5.422,0.031-7.014         C264.83,355.467,265.514,355.37,265.938,355.513z"/>
							<path style="fill-rule:evenodd;clip-rule:evenodd;fill:#FFFFFF;" d="M269.884,362.042c2.491-0.873,3.461,4.814,1.276,4.942         c-0.95,0.051-2.45-2.522-2.216-3.936C269.037,362.548,269.455,362.196,269.884,362.042z"/>
							<path style="fill-rule:evenodd;clip-rule:evenodd;fill:#FFFFFF;" d="M270.027,377.011c0.848-0.403,1.853,0.506,2.461,1.72         c0.485,0.975,0.975,3.068-0.265,3.247c-0.551,0.077-1.46-0.541-1.986-1.537C269.613,379.272,268.935,377.527,270.027,377.011         z"/>
						</g>
					</g>
				</g>
			</g>
			<g>
				<g>
					<g>
						<path style="fill-rule:evenodd;clip-rule:evenodd;fill:#DB9171;" d="M266.959,65.557c-7.938,1.626-13.712-0.503-15.928-10.004        c-0.806-3.441-1.292-8.469-2.098-13.125c-1.485-8.51-1.756-14.792,1.246-20.194c1.996-3.589,5.524-6.282,8.715-8.063        c3.252-1.823,8.908-2.415,11.9-2.142c7.928,0.712,16.74,8.206,17.613,19.009c0.342,4.227-0.322,8.189-1.164,11.678        c-1.373,5.674-0.817,9.85,0.541,16.357c0.572,2.718,2.185,8.656,2.185,8.656c2.828,9.054-15.795,12.275-19.604,8.546        L266.959,65.557"/>
						<g>
							<path style="fill-rule:evenodd;clip-rule:evenodd;fill:#F9D87A;" d="M280.207,47.554c0.802-1.994,3.109-3.073,3.859-5.616         c0.832-2.792-0.031-7.226-3.155-7.729c-2.813-0.452-4.753,1.437-5.621,3.16c-1.608,3.175,0.148,10.731-3.865,9.835         c-2.267-0.505-1.159-4.299-1.057-5.973c0.24-3.765,1.215-6.358-0.347-9.483c-1.327-2.644-5.064-4.988-7.729-5.968         c-5.1-1.887-10.981-1.2-14.049-5.268c-2.236-2.964-2.675-8.212-0.699-12.294c3.058-6.333,12.206-9.963,21.421-7.377         c3.38,0.947,7.688,4.334,12.298,6.323c11.048,4.778,19.19,3.295,18.261,18.963c-0.316,5.263-1.976,13.046-3.865,18.618         c-2.001,5.902-4.978,12.862-10.19,11.941C281.841,56.046,281.988,50.793,280.207,47.554z"/>
							<g>
								<path style="fill-rule:evenodd;clip-rule:evenodd;fill:#FFFFFF;" d="M292.204,15.498c0.996-2.287,4.748,2.55,3.344,3.773          c-1.644,1.432-3.431-2.18-3.42-3.548C292.127,15.639,292.173,15.58,292.204,15.498z"/>
								<path style="fill-rule:evenodd;clip-rule:evenodd;fill:#FFFFFF;" d="M292.663,21.793c1.051-1.723,4.442,2.175,2.629,3.219          C293.924,25.806,291.938,22.988,292.663,21.793z"/>
							</g>
							<g>
								<path style="fill-rule:evenodd;clip-rule:evenodd;fill:#FFFFFF;" d="M254.661,5.962c-0.265-2.481-5.289,1.019-4.314,2.603          c1.144,1.853,3.926-1.057,4.324-2.366C254.696,6.115,254.676,6.049,254.661,5.962z"/>
								<path style="fill-rule:evenodd;clip-rule:evenodd;fill:#FFFFFF;" d="M252.348,11.838c-0.49-1.966-4.886,0.748-3.472,2.284          C249.954,15.284,252.69,13.188,252.348,11.838z"/>
							</g>
						</g>
						<g>
							<g>
								<g>
									<g>
										<path style="fill-rule:evenodd;clip-rule:evenodd;fill:#FFFFFF;" d="M259.271,34.673            c-5.156-4.028-8.735,0.291-8.735,0.291s1.389,1.572,4.457,1.608C257.269,36.606,259.271,34.673,259.271,34.673"/>
										<path style="fill-rule:evenodd;clip-rule:evenodd;fill:#7C75D1;" d="M250.536,34.964c0,0,1.736-2.109,4.574-2.004            c0.113,0.207,0.378,0.602,0.419,0.842c0.214,1.08-0.403,2.16-1.46,2.703C251.649,36.212,250.536,34.964,250.536,34.964"/>
									</g>
									<path style="fill:#F9D87A;" d="M260.072,32.667c-3.216-3.053-7.862-2.261-9.485-1.432l-0.72-1.401           c2.568-1.312,7.765-1.652,11.287,1.69L260.072,32.667z"/>
								</g>
								<path style="fill-rule:evenodd;clip-rule:evenodd;fill:#C4765B;" d="M248.315,34.515c1.317-0.337,2.042,9.1,1.618,12.868          c-1.634,0.676-3.962,0.506-4.697-0.819C243.777,43.937,247.059,34.845,248.315,34.515"/>
								<path style="fill:#C4765B;" d="M267.015,40.32c0.73,2.463-0.664,5.057-3.13,5.794c-2.461,0.733-5.054-0.669-5.789-3.13          c-0.735-2.463,0.658-5.059,3.124-5.789C263.687,36.455,266.275,37.856,267.015,40.32"/>
							</g>
							<path style="fill:#C4765B;" d="M258.117,54.54c-1.884,1.649-4.365,2.624-6.912,1.728l0.628,2.001         c2.772,0.608,5.268-0.444,7.254-2.147C258.77,55.592,258.443,55.066,258.117,54.54z"/>
							<path style="fill-rule:evenodd;clip-rule:evenodd;fill:#C4765B;" d="M266.959,65.557c0,0,7.571-2.793,11.962-7.275         c0,0,0,10.976-9.863,14.271L266.959,65.557z"/>
						</g>
					</g>
					<g>
						<path style="fill-rule:evenodd;clip-rule:evenodd;fill:#F9D87A;" d="M250.699,49.008l0.316,3.5        c2.42,3.078,11.451,2.685,11.614-2.083C257.999,51.699,255.039,46.505,250.699,49.008z"/>
						<path style="fill-rule:evenodd;clip-rule:evenodd;fill:#F9D87A;" d="M250.954,48.986l0.316,3.505        c-1.838,3.456-8.48,3.4-9.486-1.264C246.559,51.656,246.237,47.298,250.954,48.986z"/>
					</g>
				</g>
				<g>
					<g>
						<path style="fill-rule:evenodd;clip-rule:evenodd;fill:#F9D87A;" d="M311.915,217.414c-19.292,3.071-40.279,2.81-61.844,3.604        c1.113-27.585-3.589-55.444-4.896-82.981c-1.317-27.92,7.913-52.7,23.887-64.626c3.972-2.966,10.328-5.843,16.51-6.325        c2.221-0.168,6.733-0.201,9.48,0.705c9.506,3.134,14.682,16.076,17.562,27.044        C322.099,130.969,317.02,182.298,311.915,217.414z"/>
						<g>
							<path style="fill-rule:evenodd;clip-rule:evenodd;fill:#7C75D1;" d="M338.956,249.377         c-19.486,5.452-39.774,10.096-62.87,11.944c-7.979-26.225-14.453-56.634-18.619-92.377         c-3.864-33.196-4.528-74.711,12.646-93.776c4.651-5.164,14.545-12.132,24.239-8.429c1.772,0.674,4.692,2.706,6.32,4.212         c8.679,8.033,13.513,22.713,16.51,37.934c3.012,15.313,4.656,32.18,7.025,47.067         C329.425,188.836,335.613,218.609,338.956,249.377z"/>
							<g>
								<path style="fill-rule:evenodd;clip-rule:evenodd;fill:#FFFFFF;" d="M280.865,250.889c1.486,0.697,4.227,0.396,6.907-0.059          c1.144-0.197,2.992-0.544,2.935-1.593c-0.071-1.251-2.231-1.192-3.007-1.167c-2.45,0.077-5.391,0.669-6.866,1.44          C280.6,249.819,280.641,250.503,280.865,250.889z"/>
								<path style="fill-rule:evenodd;clip-rule:evenodd;fill:#FFFFFF;" d="M288.058,253.446c-0.357,2.611,5.412,2.415,5.095,0.25          c-0.138-0.942-2.966-1.889-4.298-1.379C288.38,252.507,288.12,252.989,288.058,253.446z"/>
							</g>
							<g>
								<path style="fill-rule:evenodd;clip-rule:evenodd;fill:#FFFFFF;" d="M303.404,85.602c-0.536,1.547,0.056,4.245,0.796,6.856          c0.321,1.121,0.868,2.92,1.894,2.749c1.241-0.201,0.949-2.351,0.842-3.117c-0.342-2.425-1.241-5.289-2.17-6.672          C304.436,85.219,303.762,85.334,303.404,85.602z"/>
								<path style="fill-rule:evenodd;clip-rule:evenodd;fill:#FFFFFF;" d="M301.633,93.025c-2.639-0.077-1.828,5.639,0.296,5.095          c0.919-0.243,1.557-3.155,0.904-4.421C302.603,93.245,302.092,93.038,301.633,93.025z"/>
								<path style="fill-rule:evenodd;clip-rule:evenodd;fill:#FFFFFF;" d="M306.069,107.314c-0.924-0.122-1.608,1.052-1.817,2.395          c-0.168,1.079,0.01,3.218,1.246,3.007c0.546-0.089,1.22-0.957,1.419-2.067C307.157,109.346,307.269,107.478,306.069,107.314          z"/>
							</g>
						</g>
					</g>
					<g>
						<path style="fill-rule:evenodd;clip-rule:evenodd;fill:#A59AE8;" d="M299.974,70.6c-3.87,6.481-12.16,12.883-18.971,19.318        c-1.731,1.636-4.36,6.18-6.32,6.323c-3.033,0.219-3.783-4.176-5.973-4.919c-0.945,3.066-1.118,6.08-1.404,9.133        c-0.296,3.173,0.061,6.826-0.699,9.832c-0.735,2.895-3.584,5.761-5.273,8.079c-1.966,2.703-3.507,5.396-5.616,6.672        c-3.466-33.033,12.278-54.857,34.419-62.867c1.215-0.439,4.6,2.606,5.968,3.862C297.835,67.617,299.346,69.388,299.974,70.6z"/>
						<g>
							<g>
								<path style="fill-rule:evenodd;clip-rule:evenodd;fill:#DB9171;" d="M94.216,105.466c-2.537,1.858-11.742,4.16-11.175,6.984          c0.612,3.058,9.158-0.592,11.624-0.748c-3.038,1.753-9.746,3.992-9.684,5.751c0.072,1.983,3.875,1.71,6.346,1.297          c2.639-0.439,5.09-1.514,6.57-1.728c-2.231,1.419-7.259,3.382-6.478,5.636c0.761,2.203,6.31-0.222,8.623-0.702          c3.053-0.633,6.79-1.644,8.842-1.516c1.557,0.092,3.517,1.516,5.396,2.851c4.937,3.499,11.338,5.858,17.72,5.077          l-4.457-17.702c-3.078-1.269-5.207-3.403-7.892-6.425c-1.741-1.953-3.926-5.189-6.52-6.164          c-3.88-1.458-12.865-0.544-19.164,1.567c-2.599,0.868-9.73,3.561-9.485,5.427C84.9,108.231,91.883,105.676,94.216,105.466"/>
								<path style="fill-rule:evenodd;clip-rule:evenodd;fill:#C4765B;" d="M83.368,111.24c-2.399,3.941,5.284,2.208,8.377,1.465          c4.845-1.169,10.011-2.956,13.105-3.453c-4.477-1.164-13.866,3.4-18.863,3.185C84.986,112.391,83.92,112.134,83.368,111.24"/>
								<path style="fill-rule:evenodd;clip-rule:evenodd;fill:#C4765B;" d="M85.007,103.983c-0.868,0.924-0.5,1.414-0.276,1.84          c0.847,1.639,6.157,0.457,8.571-0.128c4.845-1.169,10.103-3.206,13.197-3.706c-4.482-1.161-13.866,3.4-18.864,3.186          C86.63,105.134,85.558,104.872,85.007,103.983"/>
								<path style="fill-rule:evenodd;clip-rule:evenodd;fill:#C4765B;" d="M128.87,126.504c-2.798-0.301-5.452-1.2-8.076-2.205          c-2.262-0.582-4.498-1.317-6.668-2.19c-2.608-1.046-3.941-2.384-7.009-1.807c-4.86,0.909-13.952,3.834-15.77,2.009          c0.02,2.233,5.11,1.182,7.816,0.682c1.547-0.289,3.16-0.72,4.789-1.131c1.618-0.406,3.446-1.154,4.789-1.128          c2.205,0.043,5.733,3.387,7.908,4.464c4.671,2.307,9.792,3.74,15.351,3.173c-0.117-0.544-0.24-1.085-0.357-1.623          C130.718,126.678,129.794,126.604,128.87,126.504z"/>
								<path style="fill-rule:evenodd;clip-rule:evenodd;fill:#C4765B;" d="M86.375,115.832c-3.849,2.537,0.342,3.443,1.93,3.449          c5.769,0.025,11.573-4.043,19.67-4.436c-1.169-0.562-2.154-0.434-3.543-0.286c-3.696,0.403-9.746,2.433-13.702,3.165          C88.922,118.058,86.865,118.155,86.375,115.832"/>
							</g>
							<g>
								<path style="fill-rule:evenodd;clip-rule:evenodd;fill:#A59AE8;" d="M126.083,137.509          c-0.832-10.836,0.674-20.974,1.68-31.573c44.078,4.983,82.142,1.695,115.146-7.691c11.196-3.185,21.85-7.165,32.612-9.182          c12.783-2.4,21.625,5.422,19.808,18.532c-2.312,16.64-21.85,22.503-36.675,26.98c-13.049,3.936-25.582,6.601-40.662,8.23          C185.946,146.271,153.436,143.364,126.083,137.509z"/>
								<path style="fill:#7C75D1;" d="M197.136,122.487c1.94,0.056,7.474-11.451,8.653-16.663c-2.869,0.37-5.759,0.715-8.694,1.006          C196.299,112.294,194.665,122.405,197.136,122.487z"/>
							</g>
						</g>
					</g>
				</g>
			</g>
		</g>
	</g>
</g>















</svg>
