<?xml version="1.0" encoding="UTF-8"?>
<!-- Generator: Adobe Illustrator 25.2.0, SVG Export Plug-In . SVG Version: 6.00 Build 0)  -->
<svg xmlns="http://www.w3.org/2000/svg" xmlns:xlink="http://www.w3.org/1999/xlink" version="1.1" id="Capa_1" x="0px" y="0px" viewBox="0 0 512 512" style="enable-background:new 0 0 512 512;" xml:space="preserve" width="512" height="512">
<g>
	<polygon style="fill:#E76055;" points="303.331,226.473 313.742,293.194 372.419,285.15 376.205,305.971 295.287,311.176    247.856,225.467  "/>
	<path style="fill:#43918F;" d="M293.318,264.575l21.89-16.199c0,0-8.318-35.024-33.273-40.716l-8.756,22.766L293.318,264.575z"/>
	<polygon style="fill:#E76055;" points="212.325,202.406 129.369,243.538 141.797,275.746 225.522,239.61  "/>
	<path style="fill:#E76055;" d="M246.026,179.814l-2.18,23.468l24.517,2.189c0,0-7.392,37.134-20.727,29.166   c-13.335-7.968-35.312-32.231-35.312-32.231l19.278-0.727l0.086-21.851L246.026,179.814z"/>
	<path style="fill:#43918F;" d="M221.029,200.875c0,0,19.375,26.827,26.827,24.592c7.452-2.236,4.746-21.309,4.746-21.309   s24.316-2.537,35.494,5.66s-9.372,119.34-9.372,119.34l-77.071,2.128c0,0-8.942-108.799-8.942-118.487   S221.029,200.875,221.029,200.875z"/>
	<g>
		<path style="fill:#7B5366;" d="M222.956,164.92c0,0-0.626,11.898-20.664,15.029s-26.3-16.281-18.16-14.403    c8.141,1.879,0.222,23.197-17.312,15.057s-13.998-21.945-6.484-27.581s14.574,16.459-11.1,7.066    c-25.674-9.393-16.453-40.255-3.929-37.75c12.524,2.505-5.587,15.486-14.096-2.185c-8.141-16.907,2.198-34.76,14.096-32.882    c11.898,1.879,3.131,13.776,0,10.019s-8.767-38.198,8.141-38.198s20.038,7.514,11.898,7.514c-8.141,0-18.16-36.946,8.141-38.198    c26.3-1.252,23.795,15.029,16.281,13.15c-7.514-1.879-7.514-32.562,14.403-29.431s26.926,20.038,19.412,16.281    S223.05-2.28,246.125,1.483c29.127,4.749,21.291,25.048,14.403,23.169c-6.888-1.879,14.709-31.617,32.869-12.205    s1.572,29.112-2.812,24.102c-4.383-5.01,15.336-25.355,30.99,0.319c12.128,19.89-3.438,28.486-7.821,25.981    c-4.383-2.505,11.272-13.776,19.412,0c8.141,13.776-4.383,41.329-9.393,33.815c-5.01-7.514,5.01-16.281,12.524-1.879    c7.514,14.403-4.383,36.946-15.655,38.824c-11.272,1.879-8.141-10.019-1.879-8.141c6.262,1.879,10.645,30.057-8.141,35.067    s-15.655-11.898-10.645-9.393c5.01,2.505,14.271,36.208-18.538,24.366"/>
		<path style="fill:#241726;" d="M174.428,183.572c-2.319,0-5.015-0.533-8.079-1.955c-10.118-4.698-12.784-10.857-13.238-15.197    c-0.134-1.286-0.084-2.591,0.135-3.88c-1.342-0.358-2.803-0.82-4.395-1.402c-15.185-5.556-19.053-18.929-16.22-29.004    c0.538-1.912,1.283-3.628,2.184-5.105c-1.687-1.515-3.269-3.604-4.612-6.391c-5.558-11.546-2.55-22.343,1.716-28.08    c2.572-3.459,5.823-5.636,9.293-6.315c-0.887-6.971-0.8-15.471,1.935-21.31c2.132-4.552,5.694-6.958,10.299-6.958    c1.348,0,2.589,0.047,3.729,0.129c-1.061-3.173-1.714-6.756-1.795-10.136c-0.295-12.394,6.454-20.124,18.051-20.676    c4.442-0.211,8.001,0.067,10.855,0.632c0.08-0.734,0.19-1.463,0.331-2.179c2.093-10.682,9.455-16.188,19.71-14.724    c6.826,0.976,12.104,3.276,15.922,5.925c0.104-0.391,0.219-0.784,0.348-1.181c2.772-8.58,11.171-17.757,25.706-15.386    c11.908,1.942,17.269,6.377,19.681,10.03c1.888-1.574,4.014-2.953,6.263-3.937c7.821-3.419,15.621-1.571,21.965,5.211    c4.163,4.45,6.432,8.307,7.578,11.514c0.301-0.043,0.605-0.076,0.911-0.102c5.105-0.427,12.717,1.533,19.827,13.191    c5.383,8.827,5.312,15.177,3.87,19.337c3.062,1.017,5.739,3.287,7.731,6.658c4.426,7.492,3.044,18.974-0.159,27.1    c1.093,1.19,2.217,2.777,3.318,4.887c3.774,7.233,3.239,17.145-1.43,26.512c-2.957,5.932-7.062,10.465-11.282,12.643    c0.479,2.272,0.714,4.728,0.678,7.076c-0.168,10.873-5.53,18.768-14.344,21.117c-1.823,0.487-3.435,0.771-4.861,0.896    c0.424,3.386,0.22,6.92-1.039,9.859c-2.173,5.07-8.093,9.913-23.951,4.19c-0.581-0.21-0.881-0.85-0.671-1.431    c0.208-0.581,0.85-0.884,1.431-0.671c7.848,2.834,17.886,4.619,21.136-2.968c1.156-2.695,1.272-5.892,0.853-8.907    c-4.699-0.148-6.837-2.262-7.779-3.822c-1.674-2.777-1.077-6.165,0.468-7.838c1.095-1.189,2.583-1.478,3.98-0.779    c1.956,0.978,4.18,5.205,5.203,10.144c1.414-0.107,2.972-0.383,4.655-0.832c11.229-2.995,12.611-14.28,12.684-18.993    c0.034-2.194-0.172-4.289-0.539-6.159c-0.552,0.179-1.105,0.315-1.654,0.407c-5.318,0.891-7.393-1.136-8.158-2.42    c-1.071-1.8-0.836-4.23,0.582-6.047c1.425-1.825,3.609-2.511,5.835-1.846c2.195,0.659,3.872,3.345,4.92,6.788    c3.625-2.053,7.246-6.174,9.853-11.403c3.359-6.74,5.504-16.709,1.449-24.48c-0.732-1.404-1.515-2.622-2.328-3.635    c-1.516,3.184-3.298,5.612-5.027,6.698c-1.933,1.217-3.844,0.814-5.108-1.082c-1.771-2.656-2.036-5.709-0.71-8.165    c1.075-1.993,3.03-3.179,5.235-3.179c0.014,0,0.028,0,0.044,0c1.134,0.008,2.858,0.342,4.803,1.824    c2.73-7.325,4.04-17.489-0.012-24.346c-2.035-3.444-4.468-5.06-6.705-5.737c-0.727,1.357-1.556,2.367-2.219,3.05    c-3.1,3.19-7.527,4.551-10.08,3.089c-1.004-0.573-1.471-1.539-1.284-2.649c0.426-2.509,4.13-5.169,8.256-5.932    c1.378-0.258,2.724-0.291,4.024-0.122c1.331-3.637,1.471-9.391-3.575-17.666c-6.517-10.685-13.235-12.485-17.739-12.127    c-0.152,0.012-0.303,0.027-0.454,0.045c0.683,3.008,0.354,5.299-0.123,6.807c-1.062,3.36-3.823,5.966-7.033,6.637    c-2.221,0.465-4.286-0.107-5.528-1.527c-1.061-1.213-1.189-3.008-0.358-5.057c1.366-3.365,5.226-7.105,10.214-8.558    c-1.076-2.863-3.181-6.355-7.02-10.459c-7.242-7.741-14.569-6.826-19.435-4.692c-2.276,0.997-4.322,2.362-6.076,3.873    c0.146,0.334,0.269,0.654,0.371,0.955c1.575,4.645-0.044,8.608-1.909,10.591c-1.54,1.638-3.47,2.293-5.298,1.792    c-1.248-0.341-2.022-1.335-2.124-2.728c-0.21-2.852,2.298-7.306,6.194-11.082c-2.019-3.274-6.845-7.458-18.359-9.334    c-13.132-2.142-20.719,6.132-23.218,13.867c-0.215,0.666-0.392,1.325-0.532,1.973c3.144,2.622,4.97,5.399,5.554,7.476    c0.609,2.16-0.16,3.194-0.674,3.619c-0.646,0.534-1.866,0.951-3.993-0.112c-2.81-1.405-4.02-5.307-3.33-10.05    c-3.519-2.647-8.685-5.115-15.74-6.123c-13.23-1.891-16.512,9.426-17.199,12.94c-0.151,0.766-0.261,1.527-0.336,2.273    c5.727,1.631,7.922,4.489,8.721,6.047c1.16,2.264,1.024,4.751-0.356,6.49c-1.243,1.563-3.244,2.186-5.344,1.658    c-3.733-0.932-5.519-6.559-5.363-12.467c-2.695-0.565-6.153-0.866-10.594-0.651c-14.75,0.703-16.049,13.094-15.922,18.389    c0.093,3.907,0.896,7.516,2.011,10.435c2.976,0.39,5.077,1.021,6.472,1.584c2.963,1.195,4.661,2.864,4.661,4.58    c0,1.552-1.422,3.211-5.415,3.211c-2.87,0-5.466-3.059-7.29-7.306c-1.356-0.13-2.887-0.208-4.609-0.208    c-3.781,0-6.487,1.855-8.275,5.67c-2.567,5.483-2.551,13.597-1.716,20.136c0.692-0.007,1.348,0.045,2.026,0.152    c5.554,0.877,6.741,3.794,6.952,5.456c0.391,3.058-1.791,6.177-4.075,7.172c-1.494,0.651-2.957,0.356-3.911-0.788    c-0.969-1.165-2.142-4.85-2.911-9.543c-2.892,0.603-5.626,2.472-7.824,5.427c-3.893,5.238-6.621,15.13-1.494,25.777    c1.154,2.396,2.492,4.199,3.907,5.514c2.559-3.106,5.946-4.631,9.401-3.94c4.457,0.891,5.158,2.975,5.179,4.137    c0.037,2.071-2.04,4.018-5.053,4.734c-2.686,0.639-5.96,0.299-9.056-1.715c-0.738,1.258-1.356,2.716-1.812,4.34    c-2.648,9.419,0.911,21.205,14.836,26.299c1.523,0.558,2.905,0.994,4.159,1.331c1.029-3.192,3.083-6.138,5.887-8.241    c2.135-1.606,4.65-1.532,6.555,0.191c1.959,1.772,3.004,5.231,1.36,7.956c-1.148,1.907-4.201,4.396-12.157,2.779    c-0.165,1.042-0.199,2.095-0.09,3.133c0.394,3.764,2.788,9.145,11.955,13.402c5.537,2.57,10.699,2.269,14.536-0.844    c0.868-0.704,1.601-1.492,2.205-2.317c-1.19-1.078-2.154-2.253-2.886-3.444c-1.752-2.849-2.094-5.66-0.89-7.333    c0.493-0.688,1.691-1.753,4.127-1.193c2.006,0.463,3.383,1.897,3.88,4.038c0.527,2.278,0.005,4.969-1.295,7.427    c3.446,2.439,8.516,3.955,15.151,2.921c18.8-2.936,19.691-13.538,19.721-13.988c0.039-0.613,0.576-1.092,1.18-1.048    c0.615,0.035,1.084,0.557,1.052,1.171c-0.028,0.523-0.911,12.841-21.608,16.074c-7.225,1.129-12.822-0.536-16.688-3.238    c-0.725,0.98-1.578,1.885-2.54,2.667C181.548,181.852,178.596,183.572,174.428,183.572z M183.095,166.536    c-0.408,0-0.797,0.103-1.024,0.419c-0.538,0.748-0.374,2.657,0.979,4.858c0.56,0.911,1.278,1.811,2.153,2.653    c0.949-1.997,1.218-4.008,0.881-5.466c-0.3-1.3-1.042-2.096-2.203-2.363C183.636,166.579,183.361,166.536,183.095,166.536z     M155.959,160.88c7.064,1.403,9.172-0.872,9.709-1.76c1.034-1.714,0.314-4.003-0.945-5.143c-0.642-0.581-1.981-1.363-3.716-0.061    C158.622,155.706,156.863,158.19,155.959,160.88z M298.971,152.008c-0.246,0-0.528,0.103-0.832,0.432    c-0.967,1.047-1.277,3.372-0.195,5.165c0.97,1.609,2.857,2.521,5.443,2.701c-0.961-4.178-2.778-7.598-3.909-8.163    C299.339,152.074,299.167,152.008,298.971,152.008z M317.437,126.385c-1.295,0-2.099,0.82-2.423,1.235    c-0.844,1.08-1.017,2.531-0.424,3.529c0.802,1.349,2.938,1.846,5.87,1.358c0.492-0.082,0.991-0.211,1.493-0.384    c-0.897-3.073-2.233-5.199-3.51-5.582C318.08,126.431,317.745,126.385,317.437,126.385z M137.886,126.553    c2.513,1.61,5.116,1.894,7.249,1.385c2.079-0.493,3.35-1.692,3.335-2.518c-0.011-0.607-0.903-1.49-3.382-1.986    C142.497,122.916,139.912,124.115,137.886,126.553z M143.783,88.255c0.698,4.243,1.69,7.487,2.384,8.32    c0.133,0.163,0.45,0.541,1.3,0.171c1.476-0.644,2.999-2.897,2.751-4.839c-0.295-2.302-2.928-3.192-5.085-3.532    C144.683,88.304,144.232,88.264,143.783,88.255z M327.369,88.176c-1.39,0-2.581,0.729-3.268,2.004    c-0.927,1.716-0.701,3.909,0.603,5.864c0.589,0.882,1.147,1.002,2.059,0.429c1.465-0.92,3.134-3.33,4.569-6.543    c-1.306-1.135-2.645-1.745-3.935-1.754C327.388,88.176,327.378,88.176,327.369,88.176z M160.7,60.77    c1.499,2.927,3.268,4.719,4.646,4.719c2.248,0,3.18-0.635,3.18-0.976c0-0.331-0.586-1.428-3.263-2.507    C164.217,61.583,162.73,61.121,160.7,60.77z M322.571,57.253c-0.747,0-1.422,0.079-1.992,0.184    c-3.575,0.66-6.254,2.909-6.457,4.107c-0.023,0.134-0.036,0.207,0.188,0.335c1.274,0.729,4.69,0.049,7.367-2.706    c0.445-0.457,0.974-1.088,1.477-1.904C322.955,57.258,322.761,57.253,322.571,57.253z M186.356,30.75    c-0.02,5.145,1.654,9.217,3.682,9.725c1.25,0.311,2.36-0.01,3.052-0.881c0.827-1.042,0.873-2.606,0.118-4.078    C192.707,34.538,191.063,32.218,186.356,30.75z M300.252,25.814c-4.204,1.227-7.625,4.373-8.794,7.255    c-0.49,1.207-0.501,2.208-0.031,2.745c0.703,0.803,1.966,1.103,3.387,0.811c1.847-0.386,4.36-1.961,5.36-5.123    C300.571,30.248,300.833,28.347,300.252,25.814z M221.827,21.107c-0.169,3.055,0.624,5.486,2.255,6.302    c1.038,0.52,1.509,0.437,1.569,0.389c0.039-0.032,0.195-0.407-0.053-1.289C225.218,25.163,223.999,23.166,221.827,21.107z     M265.315,14.043c-3.254,3.35-5.109,6.988-4.977,8.796c0.046,0.616,0.309,0.688,0.482,0.735c1.009,0.275,2.126-0.153,3.082-1.167    c1.556-1.653,2.597-4.873,1.42-8.341C265.321,14.058,265.318,14.051,265.315,14.043z"/>
	</g>
	<path style="fill:#E76055;" d="M187.15,89.697c0,0,22.743-43.562,92.253-26.27c26.66,6.632,30.961,125.845-1.82,129.277   C196.125,201.232,171.103,152.812,187.15,89.697z"/>
	<path style="fill:#241726;" d="M271.368,154.186c-0.027,0-0.055-0.001-0.082-0.002c-5.407-0.177-15.216-1.911-15.631-1.986   c-0.608-0.108-1.013-0.688-0.905-1.296c0.108-0.608,0.681-1.015,1.296-0.905c0.098,0.017,9.663,1.708,14.986,1.94   c-0.315-3.043-9.388-16.457-18.063-27.74c-0.376-0.489-0.284-1.191,0.205-1.568c0.488-0.376,1.19-0.284,1.568,0.205   c7.591,9.872,20.061,26.949,18.295,30.392C272.723,153.84,272.117,154.186,271.368,154.186z"/>
	<path style="fill:#241726;" d="M258.415,179.088c-0.611,0-1.215-0.174-1.785-0.52c-4.188-2.54-5.937-14.752-6.123-16.136   c-0.082-0.611,0.347-1.175,0.96-1.256c0.605-0.085,1.173,0.348,1.256,0.96c0.647,4.819,2.596,13.024,5.067,14.522   c0.354,0.216,0.663,0.252,1.034,0.118c3.868-1.399,7.154-10.11,8.095-13.349c0.171-0.593,0.782-0.94,1.385-0.761   c0.593,0.171,0.933,0.791,0.761,1.385c-0.378,1.303-3.86,12.792-9.482,14.827C259.196,179.018,258.804,179.088,258.415,179.088z"/>
	<path style="fill:#241726;" d="M232.067,140.105c-3.384,0-10.305-7.56-13.219-10.929c-0.404-0.467-0.354-1.172,0.114-1.576   c0.466-0.405,1.172-0.356,1.576,0.114c4.842,5.594,10.241,10.358,11.464,10.166c0.706-3.315-1.509-11.256-2.432-14.034   c-0.194-0.586,0.122-1.218,0.708-1.414c0.584-0.193,1.218,0.123,1.414,0.708c0.144,0.433,3.511,10.66,2.358,15.288   c-0.29,1.166-1.086,1.52-1.535,1.626C232.374,140.088,232.224,140.105,232.067,140.105z"/>
	<path style="fill:#241726;" d="M278.812,129.942c-0.115,0-0.23-0.009-0.347-0.026c-3.875-0.574-9.815-12.891-11.543-16.652   c-0.258-0.56-0.011-1.224,0.55-1.481c0.559-0.258,1.224-0.013,1.481,0.549c3.775,8.213,8.362,15.375,9.843,15.375   c0.005,0,0.011,0,0.016,0c1.747-1.999-0.65-11.387-2.909-17.422c-0.216-0.577,0.076-1.223,0.655-1.439   c0.579-0.213,1.221,0.078,1.439,0.655c0.988,2.637,5.751,15.979,2.488,19.664C280.035,129.672,279.45,129.942,278.812,129.942z"/>
	<circle style="fill:#E4454E;" cx="227.358" cy="155.74" r="10.832"/>
	<circle style="fill:#E4454E;" cx="287.555" cy="143.62" r="10.832"/>
	<path style="fill:#E76055;" d="M193.908,153.654c0,0-18.672-16.427-23.973,0s18.386,31.549,28.413,14.237L193.908,153.654z"/>
	<path style="fill:#241726;" d="M185.896,171.115c-0.946,0-2.788-1.084-6.588-9.062c-0.265-0.557-0.028-1.224,0.529-1.489   c0.559-0.269,1.225-0.028,1.489,0.528c1.321,2.77,3.084,5.879,4.158,7.191c0.017-0.91-0.111-2.717-0.766-6.256   c-1.494-8.072-3.115-8.286-3.183-8.292c-0.879-0.099-2.493,2.647-3.323,5.028c-0.203,0.583-0.836,0.892-1.423,0.688   c-0.583-0.203-0.891-0.839-0.688-1.423c0.552-1.588,2.567-6.795,5.603-6.521c2.343,0.178,3.949,3.298,5.212,10.115   c1.355,7.32,0.867,8.95-0.509,9.395C186.273,171.06,186.106,171.115,185.896,171.115z"/>
	<path style="fill:#241726;" d="M342.869,484.424l-4.347,24.512l6.171,1.05l1.565-11.713c0,0,3.842,18.397,25.582,12.596   c21.74-5.801-25.352,2.133-13.769-25.398L342.869,484.424z"/>
	<path style="fill:#241726;" d="M378.515,273.747c-5.776,0-15.064-9.819-28.397-30.018c-9.654-14.626-17.851-29.445-17.933-29.592   c-0.159-0.29-0.182-0.636-0.063-0.944c0.12-0.309,0.37-0.549,0.684-0.655l48.981-16.581c0.321-0.105,0.671-0.064,0.953,0.112   c0.285,0.179,0.474,0.477,0.514,0.811c0.322,2.634,7.772,64.636-1.196,75.109c-0.962,1.123-2.097,1.714-3.372,1.755   C378.675,273.745,378.527,273.747,378.515,273.747z M334.792,214.225c9.495,17.02,34.02,57.286,43.723,57.286v1.118l0.097-1.119   c0.632-0.022,1.204-0.341,1.748-0.976c6.745-7.877,3.028-53.379,0.839-72.018L334.792,214.225z"/>
	<path style="fill:#F8DC94;" d="M345.92,220.321l32.178-8.518c0,0,2.86,49.674-1.42,52.052   C372.398,266.235,345.92,220.321,345.92,220.321z"/>
	<path style="fill:#E76055;" d="M364.455,286.541c0,0,10.909-30,12.422-26.223c1.514,3.777,0.36,17.728,0.36,17.728   s24.691-20.011,24.811-14.663c0.12,5.348-15.392,17.971-15.392,17.971s24.405-13.152,25.803-7.979   c1.398,5.172-24.46,17.221-24.46,17.221s31.091-10.773,28.886-4.494c-2.205,6.279-32.657,16.121-32.657,16.121   s20.461,0.568,18.487,4.057s-35.63,1.127-40.109-4.16C358.126,296.833,364.455,286.541,364.455,286.541z"/>
	<path style="fill:#241726;" d="M372.018,296.431c-0.404,0-0.793-0.219-0.992-0.601c-0.285-0.548-0.072-1.223,0.475-1.508   c0.067-0.035,6.623-3.507,7.511-8.532c0.407-2.302-0.468-4.654-2.6-6.991c-0.417-0.455-0.384-1.163,0.072-1.578   c0.454-0.416,1.163-0.386,1.578,0.072c2.628,2.877,3.687,5.871,3.149,8.895c-1.086,6.111-8.37,9.956-8.679,10.117   C372.367,296.39,372.192,296.431,372.018,296.431z"/>
	<path style="fill:#241726;" d="M375.532,335.29c-0.341,0-0.671-0.156-0.887-0.438c-0.293-0.382-0.308-0.908-0.038-1.307   l12.164-17.985l-0.022-0.008c-0.588-0.188-0.913-0.817-0.724-1.405c0.097-0.306,0.314-0.539,0.582-0.668l-8.596-40.277   c-0.13-0.604,0.255-1.197,0.859-1.326c0.601-0.135,1.197,0.254,1.326,0.859l8.792,41.186l22.102,7.074   c0.458,0.146,0.772,0.571,0.777,1.052c0.005,0.481-0.299,0.913-0.754,1.069l-35.216,12.112   C375.777,335.27,375.653,335.29,375.532,335.29z M388.989,316.27l-10.657,15.757l28.868-9.929L388.989,316.27z"/>
	<path style="fill:#241726;" d="M124.26,449.926l-24.084-6.299l-1.541,6.067l11.55,2.5c0,0-18.646,2.354-14.607,24.489   c4.038,22.135-0.093-25.442,26.42-11.687L124.26,449.926z"/>
	<path style="fill:#C27B9A;" d="M251.75,457.209l-132.11,31.115l0.438-63.917l100.298,9.006c0,0,4.18-85.265,2.969-90.5   c-1.212-5.235,36.49-15.136,36.49-15.136L251.75,457.209z"/>
	<path style="fill:#7B5366;" d="M163.85,112.449c0,0-13.48,35.754,22.273,27.067c35.753-8.687,59.762-67.172,59.762-67.172   s36.968,40.913,65.332,39.87s-20.253-73.8-56.152-74.985C183.031,34.851,163.85,112.449,163.85,112.449z"/>
	<path style="fill:#241726;" d="M186.56,147.309c-1.404,0-2.959-0.199-4.683-0.647c-7.544-1.966-12.102-5.287-13.545-9.87   c-2.214-7.03,3.81-14.208,4.067-14.511c0.401-0.469,1.104-0.526,1.574-0.127c0.469,0.4,0.527,1.105,0.128,1.575   c-0.055,0.065-5.482,6.554-3.634,12.398c1.2,3.797,5.228,6.613,11.973,8.37c5.806,1.514,10.087,0.015,12.724-4.448   c2.116-3.584,2.837-8.573,2.631-13.128c-0.509-0.097-1.018-0.236-1.528-0.415c-3.75-1.318-6.747-4.706-6.974-7.881   c-0.148-2.082,0.863-3.799,2.85-4.835c1.418-0.739,2.952-0.405,4.203,0.913c1.72,1.813,3.055,5.679,3.541,10.149   c1.688-0.058,3.697-0.713,5.622-2.79c3.64-3.931,5.496-10.875,5.533-16.831c-6.462,0.819-12.194-1.703-13.549-5.27   c-0.405-1.065-1.232-4.741,5.112-7.256c3.393-1.345,6.332-0.52,8.279,2.323c1.31,1.911,2.071,4.55,2.34,7.497   c0.468-0.128,0.939-0.277,1.411-0.449c5.516-2.001,9.424-9.21,11.042-15.664c-4.823-1.321-6.959-4.02-7.262-6.411   c-0.359-2.832,1.743-5.363,5.231-6.297c2.125-0.572,3.845,0.525,4.6,2.928c0.616,1.955,0.631,4.849,0.082,8.051   c1.163,0.186,2.458,0.296,3.893,0.309c5.147,0,9.562-3.646,12.234-7.614c-3.418-3.473-5.581-7.517-5.683-10.662   c-0.1-3.105,1.827-5.129,5.159-5.415c2.873-0.254,4.372,1.063,5.117,2.208c1.868,2.865,1.246,8.057-1.587,13.225   c-0.055,0.1-0.109,0.199-0.165,0.297c3.532,3.108,8.203,5.503,13.092,5.605c4.112,0.09,7.912-1.005,11.087-2.61   c0.087-1.501,0.273-2.955,0.546-4.298c1.177-5.775,3.811-8.911,7.048-8.429c2.325,0.356,3.603,1.83,3.42,3.94   c-0.27,3.102-3.758,7.189-8.817,10.078c-0.123,6.599,1.78,13.766,6.37,14.935c3.65,0.927,7.46-0.373,10.413-2.474   c-0.219-3.127,0.171-5.926,1.255-7.546c0.749-1.119,1.811-1.663,3.017-1.537c1.717,0.184,2.347,1.18,2.57,1.756   c0.621,1.607-0.248,3.91-2.386,6.32c-0.627,0.707-1.343,1.393-2.128,2.034c0.344,2.855,1.218,6.003,2.655,8.637   c1.534,2.816,4.251,6.182,8.781,6.081c11.913-0.202,12.012-12.307,12.01-12.822c-0.002-0.617,0.497-1.119,1.115-1.121   c0.001,0,0.002,0,0.003,0c0.616,0,1.116,0.498,1.118,1.115c0,0.148-0.116,14.825-14.208,15.064   c-4.349,0.038-8.195-2.501-10.782-7.247c-1.332-2.444-2.261-5.391-2.728-8.255c-3.278,2.03-7.318,3.166-11.257,2.16   c-5.632-1.433-7.968-8.839-8.068-15.947c-3.325,1.52-7.157,2.48-11.082,2.402c-5.341-0.112-10.37-2.612-14.226-5.938   c-3.612,5.284-8.744,8.287-13.915,8.294c-1.598-0.015-3.037-0.136-4.327-0.344c-1.718,7.095-5.996,14.946-12.474,17.296   c-0.688,0.249-1.378,0.457-2.063,0.627c0.052,6.748-2.202,14.476-6.186,18.777c-2.027,2.188-4.496,3.384-7.093,3.504   c0.205,4.85-0.606,10.104-2.966,14.101C195.328,144.169,192.147,147.309,186.56,147.309z M193.65,115.637   c-0.212,0-0.369,0.081-0.475,0.136c-1.18,0.616-1.737,1.522-1.653,2.693c0.164,2.303,2.574,4.909,5.485,5.932   c0.182,0.064,0.382,0.128,0.597,0.186c-0.44-3.719-1.499-6.884-2.882-8.342C194.271,115.766,193.917,115.637,193.65,115.637z    M205.634,94.309c-0.674,0-1.408,0.158-2.206,0.475c-1.44,0.571-4.696,2.141-3.845,4.385c0.928,2.443,5.724,4.59,11.382,3.817   c-0.211-2.74-0.851-5.125-1.927-6.695C208.132,94.967,207.007,94.309,205.634,94.309z M294.37,86.909   c-0.186,0-0.473,0.072-0.803,0.565c-0.612,0.916-0.934,2.527-0.953,4.474c0.217-0.217,0.426-0.438,0.623-0.662   c1.792-2.021,2.161-3.544,1.974-4.031c-0.07-0.181-0.313-0.295-0.725-0.339C294.454,86.913,294.415,86.909,294.37,86.909z    M224.723,75.78c-0.189,0-0.361,0.046-0.499,0.083c-2.397,0.643-3.808,2.156-3.591,3.857c0.215,1.692,2.021,3.487,5.514,4.484   c0.48-2.764,0.49-5.241-0.033-6.901C225.716,76.039,225.171,75.78,224.723,75.78z M278.436,69.484   c-2.107,0-3.585,3.541-4.226,6.689c-0.162,0.793-0.288,1.631-0.379,2.495c3.801-2.469,6.249-5.557,6.43-7.625   c0.055-0.635-0.084-1.315-1.532-1.537C278.63,69.492,278.533,69.484,278.436,69.484z M244.622,63.505   c-0.16,0-0.327,0.008-0.5,0.022c-2.159,0.186-3.179,1.205-3.117,3.117c0.082,2.542,1.839,5.839,4.622,8.779   c2.263-4.244,2.903-8.614,1.548-10.693C246.639,63.907,245.802,63.505,244.622,63.505z"/>
	<path style="fill:#C27B9A;" d="M355.373,340.864l27.594,145.037l-70.279,7.838l10.268-129.401c0,0-104.341,13.639-109.544,12.296   c-34.652-8.942-7.825-60.361-7.825-60.361L355.373,340.864z"/>
	<g>
		<g>
			<path style="fill:#E23962;" d="M321.581,220.476l17.667,30.639l-18.608-0.916l-54.825,31.876c0,0,16.435,17.402-20.713,42.399     c-4.534,3.051-14.148,0.043-20.407,3.303c-4.976,2.592-6.257,11.417-12.468,14.12c-10.28,4.474-22.338,9.089-36.465,13.804     l-27.033-42.575c0,0,10.433-12.286,25.448-25.264c4.71-4.071,11.87-6.21,17.301-10.059c4.52-3.204,7.228-8.207,12.018-10.803     c19.48-10.557,40.334-14.385,55.562,2.39l55.287-31.095L321.581,220.476z"/>
			<path style="fill:#F6DBBE;" d="M212.225,341.89c14.019-6.103,24.736-11.945,32.873-17.422C238.581,313.96,204.97,267,204.97,267     c-1.078,0.299-2.316,0.718-3.655,1.219c-9.76,5.565-19.102,12.701-27.135,19.644C182.876,300.265,209.549,338.095,212.225,341.89     z"/>
			<path style="fill:#241726;" d="M223.062,332.532c-2.666,0-5.079-0.88-6.529-2.932c-1.285-1.818-1.759-3.968-1.401-6.146     c-3.18-0.393-6.355-1.675-8.447-4.265c-2.129-2.638-2.31-6.564-0.51-11.054c0.127-0.314,0.263-0.632,0.41-0.95     c-2.662-0.378-5.65-1.188-8.851-2.534c-4.942-2.078-6.852-5.922-5.241-10.545c0.252-0.723,0.591-1.451,1.001-2.166     c-1.739-0.911-3.049-2.404-3.814-4.42c-1.214-3.195-1.077-5.852,0.405-7.896c3.122-4.305,11.105-3.98,11.44-3.964     c0.617,0.029,1.093,0.552,1.063,1.168c-0.028,0.618-0.601,1.092-1.167,1.065c-0.075-0.009-7.117-0.284-9.529,3.046     c-1.01,1.395-1.051,3.341-0.123,5.785c0.654,1.721,1.727,2.761,2.969,3.352c3.308-4.319,8.936-7.707,13.192-6.516     c2.336,0.653,2.502,2.134,2.465,2.741c-0.175,2.875-5.454,5.807-10.057,6.509c-1.729,0.259-3.311,0.224-4.709-0.095     c-0.427,0.694-0.776,1.408-1.025,2.124c-1.224,3.512,0.121,6.118,3.996,7.748c3.373,1.419,6.473,2.18,9.114,2.467     c1.92-3.194,4.648-5.973,7.1-6.292c1.207-0.154,2.271,0.291,2.994,1.264c1.205,1.621,1.265,3.357,0.164,4.762     c-1.383,1.766-4.617,2.847-9.02,2.624c-0.252,0.499-0.489,1.017-0.703,1.551c-1.464,3.652-1.401,6.866,0.175,8.818     c1.73,2.143,4.549,3.197,7.343,3.492c0.049-0.116,0.099-0.23,0.153-0.345c1.377-2.949,4.03-5.15,6.456-5.351     c1.403-0.134,2.641,0.46,3.443,1.626c1.046,1.524,0.679,3.227-0.957,4.446c-1.54,1.148-4.387,1.93-7.483,1.935     c-0.271,1.341-0.207,3.042,0.978,4.72c2.148,3.037,7.76,2.304,11.726-0.118c3.026-1.844,5.639-5.007,3.898-8.354     c-0.285-0.548-0.072-1.224,0.475-1.508c0.549-0.287,1.224-0.072,1.508,0.475c2.021,3.885,0.169,8.318-4.717,11.296     C228.758,331.619,225.779,332.532,223.062,332.532z M222.738,317.802c-0.057,0-0.116,0.002-0.176,0.008     c-1.284,0.106-3.18,1.441-4.343,3.538c2.224-0.104,4.204-0.662,5.31-1.486c0.928-0.691,0.64-1.11,0.45-1.387     C223.665,318.018,223.268,317.802,222.738,317.802z M215.288,300.972c-0.058,0-0.119,0.004-0.183,0.012     c-1.25,0.163-3.178,1.784-4.836,4.21c3.022-0.024,5.143-0.755,5.947-1.781c0.291-0.372,0.588-0.989-0.2-2.048     C215.814,301.093,215.595,300.972,215.288,300.972z M197.118,290.71c0.984,0.095,1.977,0.032,2.886-0.106     c4.523-0.689,8.096-3.36,8.162-4.434c0.004-0.075-0.236-0.285-0.836-0.453C204.511,284.932,200.05,287.346,197.118,290.71z"/>
			<path style="fill:#241726;" d="M247.306,316.715c-0.395,0-0.778-0.21-0.981-0.581c-0.297-0.541-0.098-1.221,0.443-1.517     c14.329-7.845,13.838-26.346,13.832-26.533c-0.022-0.617,0.46-1.134,1.076-1.157c0.551,0.005,1.135,0.458,1.157,1.075     c0.031,0.814,0.565,20.058-14.991,28.575C247.672,316.671,247.487,316.715,247.306,316.715z"/>
		</g>
		<path style="fill:#E76055;" d="M257.329,257.95c0,0,28.475-19.656,31.333-19.174c2.858,0.482,22.91,26.482,22.91,26.482    s-31.077,25.253-33.517,24.475C275.614,288.954,254.045,262.172,257.329,257.95z"/>
		<path style="fill:#241726;" d="M288.023,285.47c-0.341,0-0.677-0.155-0.896-0.449l-16.273-21.793    c-0.37-0.495-0.269-1.195,0.226-1.565c0.497-0.367,1.195-0.267,1.565,0.227l16.273,21.793c0.369,0.495,0.267,1.195-0.227,1.565    C288.49,285.398,288.255,285.47,288.023,285.47z"/>
		<path style="fill:#241726;" d="M295.74,276.166c-0.13,0-0.262-0.023-0.391-0.07c-5.617-2.094-14.71-17.92-15.729-19.718    c-0.305-0.537-0.116-1.219,0.421-1.524c0.539-0.302,1.219-0.114,1.524,0.421c2.657,4.688,10.451,17.192,14.565,18.724    c0.579,0.216,0.872,0.86,0.657,1.439C296.62,275.889,296.193,276.166,295.74,276.166z"/>
		<path style="fill:#241726;" d="M303.116,270.181c-0.171,0-0.346-0.039-0.51-0.123c-3.083-1.583-11.626-15.06-13.307-17.745    c-0.327-0.523-0.169-1.213,0.355-1.54c0.521-0.329,1.212-0.17,1.54,0.355c3.766,6.016,10.472,15.935,12.433,16.942    c0.549,0.282,0.765,0.956,0.484,1.505C303.914,269.959,303.522,270.181,303.116,270.181z"/>
	</g>
	<polygon style="fill:#E76055;" points="267.065,256.137 150.69,238.196 141.797,275.746 265.606,267.615  "/>
	<path style="fill:#241726;" d="M194.762,248.009c-0.071,0-0.144-0.007-0.216-0.021l-31.298-6.148   c-0.606-0.119-1.001-0.706-0.882-1.312c0.119-0.607,0.702-1.005,1.312-0.882l31.298,6.148c0.606,0.119,1.001,0.706,0.882,1.312   C195.753,247.64,195.286,248.009,194.762,248.009z"/>
	<path style="fill:#43918F;" d="M169.61,222.859l17.326,21.238l35.211,5.03l-1.118-48.252   C221.029,200.875,195.319,200.503,169.61,222.859z"/>
	<path style="fill:#241726;" d="M200.535,245.215c-0.604,0-1.101-0.482-1.117-1.089c-0.373-14.934,3.973-27.795,4.158-28.336   c0.201-0.583,0.833-0.89,1.42-0.695c0.584,0.201,0.895,0.836,0.695,1.42c-0.045,0.129-4.401,13.037-4.038,27.554   c0.015,0.618-0.473,1.131-1.089,1.146C200.555,245.215,200.545,245.215,200.535,245.215z"/>
	<path style="fill:#241726;" d="M247.414,235.757c-13.738,0-21.515-20.209-21.842-21.074c-0.218-0.577,0.073-1.222,0.651-1.44   c0.58-0.219,1.221,0.073,1.441,0.651c0.074,0.198,7.557,19.628,19.756,19.628c0.067,0,0.132-0.001,0.198-0.002   c2.043-0.035,3.679-0.807,4.996-2.36c5.629-6.628,3.106-24.355,3.079-24.533c-0.09-0.611,0.333-1.179,0.943-1.268   c0.623-0.102,1.178,0.334,1.268,0.943c0.112,0.77,2.69,18.914-3.587,26.305c-1.733,2.042-3.976,3.102-6.661,3.148   C247.576,235.756,247.495,235.757,247.414,235.757z"/>
	<path style="fill:#241726;" d="M286.232,236.273c-0.537,0-1.011-0.388-1.101-0.934c-1.444-8.67-7.653-20.788-7.715-20.91   c-0.283-0.549-0.068-1.223,0.481-1.505c0.548-0.287,1.223-0.07,1.505,0.481c0.262,0.509,6.433,12.555,7.934,21.567   c0.102,0.609-0.31,1.184-0.919,1.286C286.355,236.268,286.294,236.273,286.232,236.273z"/>
	<path style="fill:#241726;" d="M330.573,488.896c-0.606,0-1.104-0.484-1.118-1.093l-2.951-129.845   c-11.738,2.113-93.033,15.961-118.033-1.244c-4.017-2.764-6.431-6.238-7.173-10.324c-0.111-0.607,0.291-1.189,0.899-1.299   c0.606-0.119,1.19,0.291,1.299,0.899c0.633,3.479,2.733,6.468,6.242,8.882c25.635,17.642,116.73,0.822,117.646,0.652   c0.322-0.06,0.655,0.023,0.91,0.23c0.254,0.206,0.406,0.514,0.414,0.843l2.981,131.156c0.014,0.617-0.475,1.129-1.093,1.143   C330.59,488.896,330.581,488.896,330.573,488.896z"/>
	<path style="fill:#241726;" d="M312.687,473.991c-0.562,0-1.047-0.422-1.11-0.994c-0.068-0.613,0.374-1.166,0.988-1.235   l67.068-7.451c0.625-0.067,1.168,0.374,1.235,0.988c0.068,0.613-0.374,1.166-0.988,1.235l-67.068,7.451   C312.77,473.989,312.728,473.991,312.687,473.991z"/>
	<path style="fill:#241726;" d="M139.057,485.914c-0.605,0-1.103-0.482-1.118-1.089l-1.491-59.616   c-0.015-0.618,0.473-1.131,1.089-1.146c0.594-0.048,1.131,0.472,1.146,1.089l1.491,59.616c0.015,0.618-0.473,1.131-1.089,1.146   C139.076,485.914,139.066,485.914,139.057,485.914z"/>
	<path style="fill:#241726;" d="M172.172,444.596c-19.619,0-40.097-0.23-53.251-0.413c-0.618-0.009-1.111-0.516-1.103-1.133   c0.009-0.618,0.448-1.132,1.133-1.103c39.786,0.551,99.764,0.72,106.187-1.01c0.162-7.034,2.137-61.097,2.226-63.491   c0.023-0.619,0.606-1.116,1.157-1.076c0.618,0.022,1.099,0.54,1.076,1.157c-0.022,0.611-2.235,61.121-2.235,64.047   c0,0.299-0.18,0.706-0.393,0.916C225.292,444.146,199.573,444.596,172.172,444.596z"/>
	<g>
		<path style="fill:#241726;" d="M356.135,414.029c-0.017,0-0.036,0-0.053-0.001c-0.617-0.029-1.093-0.552-1.064-1.169    c0.095-2.025,0.01-4.611-0.296-5.258c-0.262-0.559-0.023-1.225,0.536-1.488c0.557-0.265,1.225-0.024,1.488,0.536    c0.695,1.479,0.543,5.52,0.505,6.315C357.223,413.563,356.728,414.029,356.135,414.029z"/>
		<path style="fill:#241726;" d="M361.156,419.791c-0.017,0-0.036,0-0.053-0.001c-0.617-0.029-1.093-0.552-1.064-1.169    c0.095-2.025,0.01-4.612-0.296-5.259c-0.262-0.559-0.023-1.225,0.536-1.488c0.559-0.265,1.224-0.022,1.488,0.536    c0.695,1.479,0.543,5.521,0.505,6.316C362.243,419.324,361.748,419.791,361.156,419.791z"/>
		<path style="fill:#241726;" d="M356.587,429.762c-0.019,0-0.036,0-0.053-0.001c-0.617-0.029-1.094-0.553-1.064-1.169    c0.096-2.025,0.01-4.612-0.295-5.259c-0.262-0.559-0.023-1.225,0.536-1.488c0.557-0.263,1.223-0.024,1.488,0.536    c0.695,1.479,0.541,5.521,0.504,6.317C357.675,429.296,357.18,429.762,356.587,429.762z"/>
		<path style="fill:#241726;" d="M361.705,434.549c-0.019,0-0.036,0-0.053-0.001c-0.617-0.029-1.094-0.553-1.064-1.169    c0.096-2.025,0.01-4.611-0.295-5.258c-0.262-0.559-0.023-1.225,0.536-1.488c0.557-0.263,1.225-0.024,1.488,0.536    c0.695,1.479,0.541,5.52,0.504,6.316C362.792,434.083,362.297,434.549,361.705,434.549z"/>
		<path style="fill:#241726;" d="M351.706,422.214c-0.019,0-0.036,0-0.053-0.001c-0.617-0.029-1.094-0.553-1.064-1.169    c0.096-2.025,0.01-4.611-0.295-5.26c-0.262-0.558-0.022-1.224,0.537-1.487c0.553-0.262,1.223-0.025,1.487,0.537    c0.695,1.479,0.541,5.52,0.504,6.316C352.793,421.748,352.298,422.214,351.706,422.214z"/>
		<path style="fill:#241726;" d="M350.36,404.025c-0.017,0-0.036,0-0.053-0.001c-0.617-0.029-1.093-0.552-1.064-1.169    c0.095-2.025,0.01-4.611-0.296-5.258c-0.262-0.559-0.023-1.225,0.536-1.488c0.556-0.265,1.225-0.024,1.488,0.536    c0.695,1.479,0.543,5.52,0.505,6.315C351.447,403.558,350.952,404.025,350.36,404.025z"/>
		<path style="fill:#241726;" d="M359.813,404.628c-0.019,0-0.036,0-0.053-0.001c-0.617-0.029-1.094-0.553-1.064-1.169    c0.096-2.025,0.01-4.612-0.295-5.259c-0.262-0.559-0.023-1.225,0.536-1.488c0.559-0.264,1.224-0.024,1.488,0.536    c0.695,1.479,0.541,5.521,0.504,6.317C360.9,404.162,360.406,404.628,359.813,404.628z"/>
		<path style="fill:#241726;" d="M355.022,394.856c-0.017,0-0.036,0-0.053-0.001c-0.617-0.029-1.093-0.552-1.064-1.169    c0.095-2.025,0.009-4.611-0.296-5.26c-0.262-0.558-0.022-1.224,0.537-1.487c0.553-0.263,1.223-0.023,1.487,0.537    c0.695,1.479,0.543,5.52,0.505,6.315C356.109,394.39,355.615,394.856,355.022,394.856z"/>
	</g>
	<g>
		<path style="fill:#241726;" d="M183.59,461.234c-0.604,0-1.081-0.013-1.303-0.022c-0.617-0.021-1.099-0.539-1.077-1.156    c0.021-0.618,0.57-1.129,1.156-1.077c2.028,0.075,4.611-0.046,5.255-0.36c0.556-0.27,1.225-0.037,1.493,0.517    c0.27,0.555,0.038,1.224-0.517,1.493C187.538,461.144,185.145,461.234,183.59,461.234z"/>
		<path style="fill:#241726;" d="M177.893,466.326c-0.604,0-1.081-0.013-1.303-0.022c-0.617-0.021-1.099-0.539-1.077-1.156    c0.022-0.618,0.605-1.123,1.156-1.077c2.018,0.074,4.609-0.048,5.254-0.36c0.557-0.27,1.225-0.037,1.493,0.517    c0.27,0.555,0.038,1.224-0.517,1.493C181.84,466.235,179.446,466.326,177.893,466.326z"/>
		<path style="fill:#241726;" d="M167.865,461.882c-0.604,0-1.081-0.013-1.303-0.022c-0.617-0.021-1.099-0.539-1.077-1.156    c0.021-0.618,0.581-1.116,1.156-1.077c2.027,0.072,4.611-0.047,5.255-0.36c0.556-0.269,1.225-0.038,1.493,0.517    c0.27,0.555,0.038,1.224-0.517,1.493C171.813,461.791,169.419,461.882,167.865,461.882z"/>
		<path style="fill:#241726;" d="M163.141,467.058c-0.604,0-1.081-0.013-1.303-0.022c-0.617-0.021-1.099-0.539-1.077-1.156    c0.021-0.618,0.585-1.148,1.156-1.077c2.029,0.073,4.612-0.047,5.255-0.36c0.559-0.27,1.225-0.037,1.493,0.517    c0.27,0.555,0.038,1.224-0.517,1.493C167.089,466.967,164.696,467.058,163.141,467.058z"/>
		<path style="fill:#241726;" d="M175.346,456.907c-0.601,0-1.075-0.014-1.298-0.022c-0.617-0.021-1.099-0.538-1.077-1.155    c0.022-0.618,0.546-1.112,1.155-1.079c2.027,0.069,4.612-0.048,5.256-0.36c0.559-0.27,1.225-0.037,1.493,0.517    c0.27,0.556,0.038,1.225-0.517,1.493C179.298,456.817,176.9,456.907,175.346,456.907z"/>
		<path style="fill:#241726;" d="M193.523,455.335c-0.604,0-1.081-0.013-1.303-0.022c-0.617-0.021-1.099-0.539-1.077-1.156    c0.022-0.618,0.595-1.129,1.156-1.077c2.025,0.071,4.612-0.047,5.255-0.36c0.559-0.267,1.224-0.037,1.493,0.517    s0.038,1.224-0.517,1.493C197.471,455.245,195.077,455.335,193.523,455.335z"/>
		<path style="fill:#241726;" d="M193.037,464.796c-0.604,0-1.081-0.013-1.303-0.022c-0.617-0.021-1.099-0.539-1.077-1.156    c0.022-0.618,0.609-1.105,1.156-1.077c2.025,0.071,4.612-0.047,5.255-0.36c0.558-0.267,1.225-0.037,1.493,0.517    c0.27,0.555,0.038,1.224-0.517,1.493C196.985,464.706,194.591,464.796,193.037,464.796z"/>
		<path style="fill:#241726;" d="M202.749,459.884c-0.604,0-1.081-0.013-1.303-0.022c-0.617-0.021-1.099-0.539-1.077-1.156    c0.021-0.618,0.571-1.147,1.156-1.077c2.018,0.074,4.609-0.046,5.254-0.36c0.556-0.27,1.225-0.037,1.493,0.517    c0.27,0.555,0.038,1.224-0.517,1.493C206.696,459.793,204.302,459.884,202.749,459.884z"/>
	</g>
</g>















</svg>
