<?xml version="1.0" encoding="UTF-8"?>
<!-- Generator: Adobe Illustrator 25.1.0, SVG Export Plug-In . SVG Version: 6.00 Build 0)  -->
<svg xmlns="http://www.w3.org/2000/svg" xmlns:xlink="http://www.w3.org/1999/xlink" version="1.1" id="Capa_1" x="0px" y="0px" viewBox="0 0 500 500" style="enable-background:new 0 0 500 500;" xml:space="preserve" width="512" height="512">
<g>
	<g>
		<polygon style="fill:#DD7C2E;" points="6.629,439.573 479.783,431.151 479.783,500 6.629,500   "/>
		<path style="fill:#251626;" d="M479.013,490.323c-0.157,0-0.317-0.027-0.472-0.083c-30.398-11.165-332.534-5.892-377.724-3.33    c-48.389,2.757-92.759-6.823-93.2-6.919c-0.74-0.161-1.207-0.891-1.045-1.633c0.162-0.739,0.885-1.21,1.631-1.044    c0.439,0.096,44.466,9.569,92.459,6.861c46.61-2.645,347.355-8.065,378.824,3.49c0.711,0.262,1.075,1.049,0.814,1.761    C480.096,489.981,479.571,490.323,479.013,490.323z"/>
		<path style="fill:#251626;" d="M62.041,469.054c-27.569,0-47.765-1.472-54.813-5.511c-0.657-0.375-0.885-1.213-0.507-1.871    c0.376-0.658,1.213-0.883,1.87-0.506c15.986,9.163,105.973,4.355,193.002-0.3c55.551-2.969,108.019-5.771,141.872-5.091    c87.059,1.756,135.316,10.354,135.794,10.439c0.744,0.137,1.238,0.849,1.104,1.593c-0.135,0.747-0.849,1.234-1.594,1.105    c-0.475-0.086-48.547-8.646-135.361-10.396c-33.742-0.672-86.171,2.12-141.67,5.086    C151.239,466.302,99.746,469.054,62.041,469.054z"/>
		<path style="fill:#F2BA9B;" d="M114.51,339.898c0,0-89.857,97.246-87.054,112.298c2.803,15.052,166.21,7.046,166.21,7.046    l-9.602-34.709L79.792,432.66l52.841-48.945L114.51,339.898z"/>
		<path style="fill:#757A91;" d="M74.501,365.947l38.542,49.351l92.633-31.583l-23.572-77.907    C182.104,305.808,151.634,285.203,74.501,365.947z"/>
		<path style="fill:#F2BA9B;" d="M419.828,276.246c0,0,24.663,153.141,14.613,166.396s-119.419-76.695-119.419-76.695l22.672-50.568    l60.521,61.618l6.26-99.845L419.828,276.246z"/>
		<path style="fill:#757A91;" d="M391.706,350.105l-42.12,58.489l-44.806-62.854l-15.345-51.924    C289.434,293.817,354.017,275.923,391.706,350.105z"/>
		<path style="fill:#757A91;" d="M324.415,467.367c0,0,31.114-155.867,13.754-167.973c-17.36-12.107-175.449-2.057-179.091,7.08    c-3.642,9.137,13.713,165.197,13.713,165.197L324.415,467.367z"/>
		<path style="fill:#F2BA9B;" d="M248.076,247.827l6.13,45.084l35.228,0.907c0,0-15.28,58.396-44.249,51.331    s-41.235-47.326-41.235-47.326l26.093-2.878l-8.82-36.567L248.076,247.827z"/>
		<g>
			<path style="fill:#E9546A;" d="M277.61,62.626c0,0,37.185-39.471,2.649-46.954c-34.537-7.483-36.633,17.844-23.209,16.117     c13.424-1.727,7.286-34.537-16.699-25.902s-15.926,35.148-10.17,27.647S225-9.09,201.976,4.442s-22.558,44.04-11.567,30.801     c10.991-13.239-6.251-46.049-28.137-27.054s-5.743,47.776,0,39.717s-12.676-33.543-27.642-15.908s-9.21,43.273,1.727,36.498     c10.937-6.775-9.516-22.919-17.997-3.623s19.409,35.224,29.064,31.865"/>
			<path style="fill:#251626;" d="M144.339,98.57c-6.695,0-16.172-4.596-22.321-11.253c-6.563-7.104-8.309-15.271-4.913-22.996     c2.037-4.636,4.643-7.163,7.105-8.515c0.023-7.575,2.693-16.821,9.374-24.693c4.919-5.795,10.928-7.787,16.821-5.854     c1.151-5.699,4.161-12.195,10.969-18.106c8.98-7.795,18.755-8.132,26.134-0.915c1.496,1.464,2.824,3.207,3.936,5.123     c2.7-3.033,5.972-5.83,9.836-8.1c8.94-5.257,17.412-4.13,23.862,3.167c1.389,1.571,2.602,3.341,3.632,5.209     c2.655-2.827,6.292-5.305,11.111-7.04c7.793-2.808,14.808-1.692,19.745,3.134c1.582,1.547,2.879,3.45,3.838,5.519     c4.344-0.602,9.936-0.468,17.079,1.081c8.274,1.791,13.356,5.557,15.102,11.186c4.605,14.84-16.158,37.108-17.044,38.047     c-0.518,0.551-1.385,0.576-1.937,0.059c-0.551-0.519-0.577-1.387-0.058-1.938c0.205-0.219,20.556-22.04,16.421-35.36     c-1.433-4.615-5.829-7.749-13.065-9.318c-6.494-1.405-11.565-1.595-15.494-1.151c1.131,3.635,1.266,7.522,0.174,10.787     c-1.253,3.739-3.888,6.049-7.423,6.505c-3.58,0.466-6.644-0.814-8.194-3.41c-1.666-2.795-1.3-6.478,0.956-9.615     c1.063-1.48,4.107-4.799,10.722-6.363c-0.756-1.462-1.747-2.851-2.994-4.071c-2.932-2.864-8.247-5.629-16.9-2.513     c-5.063,1.82-8.467,4.371-10.751,7.053c3.469,7.795,3.97,16.532,1.203,20.137c-1.713,2.23-3.548,1.919-4.259,1.686     c-2.501-0.83-4.221-4.577-4.279-9.326c-0.05-4.031,1.156-8.662,4.164-12.816c-1.027-2.021-2.293-3.959-3.805-5.669     c-3.88-4.39-10.573-8.408-20.418-2.621c-4.049,2.38-7.317,5.265-9.904,8.314c3.287,7.329,3.568,16.315-1.302,22.182     c-2.469,2.974-4.71,4.189-6.668,3.619c-0.933-0.273-2.56-1.234-2.978-4.599c-0.656-5.287,1.846-13.874,7.741-21.505     c-1.081-2.064-2.428-3.932-3.967-5.436c-6.345-6.205-14.515-5.835-22.422,1.028c-6.476,5.618-9.209,11.804-10.18,17.145     c0.985,0.525,1.962,1.162,2.926,1.911c6.551,5.099,11.242,15.129,7.472,20.421c-1.083,1.518-2.599,2.182-4.251,1.9     c-3.292-0.581-6.62-5.006-8.282-11.009c-0.557-2.01-1.452-6.304-0.878-11.58c-3.896-1.445-9.059-1.309-14.303,4.872     c-5.869,6.917-8.425,15.075-8.718,21.832c1.587-0.41,2.966-0.407,3.883-0.324c4.684,0.428,8.918,3.718,9.846,7.653     c0.704,2.985-0.612,5.76-3.608,7.615c-3.421,2.12-6.807,1.678-9.294-1.205c-1.787-2.074-3.015-5.442-3.425-9.51     c-1.66,1.242-3.331,3.26-4.746,6.478c-3.753,8.542,0.331,15.608,4.418,20.033c7.075,7.658,18.143,11.663,22.942,9.987     c0.711-0.241,1.496,0.128,1.744,0.846c0.249,0.715-0.128,1.496-0.845,1.745C146.83,98.396,145.636,98.57,144.339,98.57z      M126.969,57.554c0.214,3.967,1.265,7.225,2.892,9.112c1.578,1.836,3.521,2.056,5.774,0.667c1.987-1.231,2.811-2.843,2.382-4.655     c-0.658-2.795-3.921-5.236-7.428-5.554C129.625,57.03,128.358,57.081,126.969,57.554z M152.614,29.317     c-0.325,4.347,0.411,7.843,0.883,9.545c1.504,5.436,4.273,8.715,6.115,9.039c0.408,0.078,0.945,0.048,1.543-0.79     c2.56-3.595-0.933-12.005-6.923-16.668C153.752,30.07,153.21,29.684,152.614,29.317z M190.816,16.434     c-5.056,7.064-6.756,14.508-6.278,18.368c0.191,1.536,0.673,2.203,1.028,2.305c0.446,0.158,1.76-0.294,3.789-2.738     C193.186,29.754,193.152,22.596,190.816,16.434z M228.196,16.83c-2.475,4.125-2.748,8.113-2.726,9.866     c0.048,3.903,1.425,6.432,2.402,6.759c0.428,0.131,0.895-0.335,1.219-0.758C230.963,30.262,230.769,23.45,228.196,16.83z      M261.772,16.3c-5.987,1.29-8.642,4.146-9.56,5.423c-1.609,2.238-1.925,4.773-0.827,6.612c0.986,1.654,2.99,2.417,5.489,2.096     c3.122-0.402,4.537-2.754,5.174-4.655C262.901,23.225,262.895,19.708,261.772,16.3z"/>
		</g>
		<path style="fill:#F2BA9B;" d="M147.011,90.455c0,0,63.59-64.7,130.599-27.829c50.135,27.587,30.217,205.507-54.208,195.547    C163.559,251.113,120.222,127.796,147.011,90.455z"/>
		<path style="fill:#E9546A;" d="M147.011,90.455c0,0,6.172,116.006,34.569,126.903c50.963,19.557-17.122-47.227,53.624-43.046    c45.364,2.681,4.821,40.7,43.521,31.099c29.107-7.22,7.238-132.699,3.485-139.603c-3.754-6.904,48.778,24.116,24.405,102.69    c-8.175,26.353,57.025,43.578,7.439,83.874c-88.028,71.537-210.266,6.503-179.28-33.252    C177.404,164.427,70.011,159.557,147.011,90.455z"/>
		<path style="fill:#251626;" d="M252.935,173.993c-0.115,0-0.233-0.008-0.353-0.024c-5.904-0.843-25.097-5.608-25.911-5.811    c-0.735-0.182-1.182-0.926-1-1.662c0.182-0.733,0.926-1.178,1.661-0.998c0.191,0.048,18.598,4.617,25.022,5.664    c-0.162-4.219-9.577-23.467-19.124-40.628c-0.368-0.661-0.13-1.496,0.531-1.863c0.662-0.369,1.496-0.131,1.864,0.53    c8.218,14.77,21.612,40.119,18.998,43.923C254.236,173.688,253.632,173.993,252.935,173.993z"/>
		<path style="fill:#251626;" d="M225.759,220.657c-0.822,0-1.607-0.273-2.315-0.814c-6.013-4.596-5.481-31.297-5.4-34.327    c0.02-0.758,0.701-1.362,1.407-1.333c0.756,0.021,1.354,0.65,1.334,1.408c-0.289,10.902,0.629,29.252,4.324,32.073    c0.331,0.254,0.622,0.305,1.02,0.193c6.146-1.852,16.791-21.203,20.374-28.505c0.336-0.677,1.152-0.95,1.834-0.626    c0.68,0.335,0.96,1.156,0.626,1.836c-1.372,2.795-13.646,27.388-22.044,29.918C226.528,220.598,226.139,220.657,225.759,220.657z"/>
		<path style="fill:#251626;" d="M199.74,143.178c-0.011,0-0.021,0-0.031,0c-6.171-0.054-9.713-17.811-10.651-23.253    c-0.128-0.747,0.372-1.453,1.118-1.585c0.744-0.123,1.455,0.372,1.583,1.119c1.745,10.113,5.366,20.954,7.974,20.978    c0.003,0,0.005,0,0.008,0c2.453,0,4.508-10.876,4.819-20.648c0.024-0.758,0.592-1.336,1.413-1.328    c0.756,0.024,1.349,0.658,1.325,1.413C207.125,125.349,206.065,143.178,199.74,143.178z"/>
		<path style="fill:#251626;" d="M264.342,142.528c-0.009,0-0.019,0-0.029,0c-6.003-0.056-12.692-17.672-14.599-23.068    c-0.253-0.715,0.122-1.499,0.835-1.751c0.716-0.254,1.496,0.123,1.748,0.835c3.604,10.196,9.232,21.216,12.04,21.243    c0.003,0,0.005,0,0.008,0c2.452,0,4.508-10.876,4.819-20.648c0.023-0.758,0.559-1.368,1.413-1.328    c0.756,0.024,1.349,0.658,1.325,1.413C271.728,124.698,270.668,142.528,264.342,142.528z"/>
		<circle style="fill:#F2BA9B;" cx="123.427" cy="154.133" r="17.025"/>
		<circle style="fill:#F2BA9B;" cx="318.732" cy="133.715" r="15.878"/>
		<path style="fill:#251626;" d="M129.428,163.961c-0.019,0-0.037,0-0.056,0c-0.756-0.032-1.345-0.669-1.314-1.427    c0.171-4.269-0.845-7.297-3.021-8.999c-3.8-2.966-10.078-1.186-10.141-1.172c-0.721,0.219-1.486-0.203-1.7-0.929    c-0.213-0.725,0.202-1.486,0.927-1.7c0.308-0.091,7.67-2.2,12.59,1.633c2.918,2.275,4.291,6.071,4.082,11.28    C130.767,163.382,130.159,163.961,129.428,163.961z"/>
		<path style="fill:#251626;" d="M316.517,146.495c-0.576,0-1.111-0.364-1.301-0.942c-2.211-6.703-2.076-11.708,0.403-14.875    c2.844-3.632,7.597-3.306,7.804-3.3c0.754,0.059,1.32,0.717,1.262,1.472c-0.059,0.752-0.739,1.309-1.464,1.263l0,0    c-0.04,0.003-3.533-0.209-5.458,2.273c-1.838,2.372-1.819,6.628,0.055,12.31c0.238,0.717-0.153,1.494-0.871,1.729    C316.804,146.473,316.659,146.495,316.517,146.495z"/>
		<circle style="fill:#EA7C71;" cx="178.503" cy="166.004" r="16.23"/>
		<circle style="fill:#EA7C71;" cx="273.28" cy="159.12" r="16.23"/>
		<path style="fill:#251626;" d="M210.945,277.618c-12.868,0-19.566-7.425-22.554-14.695c-3.448,1.951-8.766,3.378-16.922,2.899    c-16.186-0.972-22.991-13.159-23.962-24.241c0-0.005,0-0.008,0-0.011c-2.467,0.179-5.075-0.407-7.709-1.799    c-5.592-2.955-7.868-9.104-6.409-17.316c0.733-4.133,2.342-8.413,4.391-12.206c-4.929-1.973-6.302-5.731-6.491-8.865    c-0.281-4.647,1.978-10.255,4.956-15.038c-1.724-0.942-2.938-2.294-3.624-4.045c-2.511-6.4,3.378-15.753,3.631-16.146    c0.407-0.637,1.254-0.822,1.891-0.42c0.638,0.407,0.826,1.255,0.42,1.892c-1.507,2.369-5.052,9.444-3.389,13.678    c0.471,1.197,1.326,2.104,2.596,2.746c3.104-4.374,6.612-7.677,8.809-8.231c1.769-0.442,3.311,0.072,4.235,1.416    c1.263,1.836,1.017,4.727-0.6,7.035c-1.08,1.539-4.339,4.928-11.335,3.094c-0.007,0-0.013-0.003-0.02-0.005    c-2.809,4.395-5.09,9.642-4.836,13.86c0.197,3.266,1.89,5.458,5.15,6.633c3.291-5.26,7.344-9.149,10.755-9.61    c3.279-0.455,6.628,1.014,8.314,3.635c1.257,1.957,1.333,4.194,0.203,5.988c-1.213,1.919-4.908,4.933-16.048,3.52    c-0.676-0.086-1.313-0.195-1.911-0.324c-2.018,3.603-3.674,7.784-4.401,11.871c-0.871,4.912-0.713,11.398,4.991,14.412    c2.436,1.288,4.534,1.644,6.305,1.478c-0.019-7.305,2.523-13.132,6.352-14.048c2.038-0.487,3.709,0.128,4.593,1.684    c1.597,2.8,0.145,7.923-3.239,11.414c-1.453,1.502-3.101,2.554-4.877,3.151c0.008,0.104,0.017,0.211,0.025,0.316    c0.871,9.944,6.95,20.879,21.395,21.746c7.99,0.468,12.856-0.956,15.832-2.786c-0.531-1.78-0.849-3.496-0.992-5.024    c-0.507-5.431,0.855-9.213,3.473-9.639c1.431-0.246,2.817,0.442,3.805,1.852c1.524,2.176,2.152,6.333-0.074,10.314    c-0.589,1.052-1.516,2.313-2.965,3.523c2.61,6.753,8.801,13.924,21.019,13.542c6.919-0.174,12.549-2.824,16.767-6.376    c-1.014-0.693-1.815-1.403-2.437-2.053c-3.224-3.381-4.389-7.99-3.114-12.329c1.257-4.283,4.636-7.476,9.041-8.547    c3.798-0.913,5.846,0.396,6.895,1.668c2.135,2.58,1.983,7.428-0.393,12.645c-1.198,2.631-3.001,5.42-5.379,7.99    c4.454,1.799,11.676,2.69,23.19-0.107c11.883-2.883,17.846-7.101,20.821-10.793c-4.31-1.51-7.449-4.232-8.343-7.404    c-0.779-2.76,0.226-5.554,2.827-7.867c1.892-1.684,4.35-2,6.57-0.827c3.197,1.678,5.06,5.857,4.529,10.164    c-0.13,1.06-0.464,2.521-1.267,4.197c3.825,0.581,14.942,1.052,23.592-10.819c2.117-2.907,3.742-5.519,4.956-7.846    c-2.677-1.354-4.976-3.196-6.541-5.139c-2.994-3.723-3.12-7.482-0.327-9.81c3.421-2.851,7.803-3.14,10.421-0.693    c1.255,1.178,4.101,5.102,0.162,14.227c4.09,1.373,8.71,1.312,12.363-1.52c4.691-3.64,5.43-12.953,1.797-22.645    c-1.874-4.997-5.209-10.437-9.697-13.756c-0.543,1.815-1.557,3.236-3.184,4.004c-4.415,2.083-9.03,0.685-11.45-1.499    c-1.689-1.526-2.357-3.405-1.785-5.03c0.486-1.376,2.018-3.068,6.569-3.327c2.745-0.161,5.295,0.375,7.626,1.4    c-0.082-2.832-0.839-6.413-2.271-10.273c-0.842-2.273-1.828-4.371-2.876-6.202c-1.832,1.017-4.006,1.253-6.274,0.608    c-3.47-0.985-6.182-3.761-6.174-6.325c0.003-0.886,0.375-3.046,3.753-3.98c3.223-0.87,6.503,1.577,9.303,5.509    c0.092-0.131,0.183-0.27,0.272-0.415c4.888-7.995-5.83-18.215-5.938-18.32c-0.551-0.517-0.578-1.384-0.06-1.935    c0.517-0.551,1.385-0.578,1.935-0.064c0.511,0.482,12.452,11.853,6.403,21.749c-0.319,0.519-0.668,0.993-1.047,1.419    c1.251,2.144,2.365,4.55,3.275,7.005c1.516,4.09,2.603,8.823,2.404,12.69c5.553,3.59,9.6,9.955,11.783,15.782    c3.424,9.133,3.921,20.646-2.682,25.769c-4.667,3.627-10.339,3.616-15.233,1.863c-1.266,2.455-2.981,5.233-5.265,8.368    c-6.709,9.208-16.711,13.635-26.722,11.834c-0.195-0.035-0.388-0.072-0.581-0.112c-3.112,4.36-9.588,9.428-22.993,12.682    c-13.001,3.151-21.057,1.791-25.928-0.498c-4.718,4.237-11.177,7.479-19.219,7.682    C211.512,277.615,211.226,277.618,210.945,277.618z M234.36,247.994c-0.515,0-1.091,0.078-1.725,0.233    c-3.442,0.835-6.082,3.322-7.059,6.652c-0.994,3.389-0.072,7.002,2.468,9.666c0.616,0.645,1.437,1.354,2.517,2.029    c2.432-2.489,4.253-5.246,5.432-7.835c1.88-4.128,2.191-8.052,0.775-9.765C236.231,248.321,235.424,247.994,234.36,247.994z     M190.486,248.332c-0.033,0-0.068,0.003-0.103,0.008c-0.49,0.08-1.597,2.257-1.183,6.681c0.099,1.057,0.292,2.216,0.597,3.424    c0.672-0.693,1.148-1.379,1.486-1.981c1.575-2.819,1.304-5.857,0.221-7.404C191.307,248.779,190.924,248.332,190.486,248.332z     M275.434,242.906c-0.621,0-1.31,0.214-2.01,0.838c-1.824,1.622-2.5,3.33-2.009,5.072c0.687,2.436,3.5,4.617,7.283,5.782    c0.836-1.569,1.164-2.934,1.285-3.903c0.439-3.568-1.219-6.424-3.084-7.404C276.496,243.08,275.994,242.906,275.434,242.906z     M155.048,227.351c-0.185,0-0.407,0.027-0.677,0.091c-2.105,0.503-4.087,4.802-4.237,10.653c1.298-0.586,2.294-1.413,2.986-2.128    c2.872-2.966,3.592-6.807,2.827-8.151C155.859,227.665,155.681,227.351,155.048,227.351z M309.131,221.993    c-1.36,0-2.896,0.589-4.259,1.724c-2.22,1.852-0.246,4.805,0.707,5.988c1.352,1.678,3.323,3.236,5.593,4.385    c2.583-5.934,2.152-9.612,0.491-11.167C310.996,222.298,310.109,221.993,309.131,221.993z M142.004,208.561    c0.241,0.04,0.486,0.075,0.739,0.107c10.283,1.312,12.842-1.403,13.384-2.265c0.762-1.205,0.207-2.422-0.19-3.041    c-0.933-1.451-3.039-2.738-5.64-2.404C147.988,201.272,144.808,204.294,142.004,208.561z M309.251,194.087    c-0.26,0-0.519,0.008-0.784,0.021c-2.716,0.155-3.917,0.878-4.138,1.504c-0.186,0.527,0.221,1.344,1.037,2.08    c1.767,1.598,5.158,2.604,8.442,1.057c0.97-0.458,1.61-1.526,1.919-3.049C313.744,194.682,311.579,194.087,309.251,194.087z     M140.528,184.93c3.315,0.629,5.995-0.163,7.441-2.232c1.021-1.456,1.099-3.161,0.586-3.905c-0.103-0.15-0.369-0.551-1.308-0.311    C145.802,178.843,143.109,181.418,140.528,184.93z M303.394,169.167c-0.197,0-0.388,0.027-0.571,0.078    c-0.792,0.217-1.737,0.629-1.74,1.346c-0.004,1.175,1.783,2.998,4.18,3.675c0.994,0.286,2.554,0.487,4.065-0.289    C307.254,171,305.089,169.167,303.394,169.167z"/>
		<polygon style="fill:#9CD1C3;" points="125.552,477.64 95.483,327.782 385.218,317.974 374.738,470.567   "/>
		<polygon style="fill:#FFFFFF;" points="240.752,394.962 250.575,376.997 256.705,395.523 277.689,398.487 258.846,407.884     262.362,431.151 248.654,411.237 228.656,426.391 236.261,406.102 217.848,397.199   "/>
		<path style="fill:#F2BA9B;" d="M392.562,243.148c4.054-13.071,9.495-30.851,12.2-28.837c3.673,2.735,0.805,26.737,0.805,26.737    s21.537-36.341,23.373-31.714c1.837,4.627-11.02,36.173-11.02,36.173s22.04-30.078,24.795-26.221    c2.755,3.857-15.611,35.862-15.611,35.862s23.876-22.197,24.795-17.459c0.918,4.739-24.717,40.845-39.488,40.873    C388.68,278.608,391.11,247.832,392.562,243.148z"/>
		<path style="fill:#251626;" d="M414.089,269.845c-0.054,0-0.107-0.003-0.162-0.011c-0.751-0.088-1.289-0.768-1.201-1.52    c0.895-7.613,0.945-20.493-2.729-22.648c-1.081-0.632-2.67-0.203-4.718,1.277c-0.613,0.444-1.471,0.308-1.914-0.302    c-0.444-0.613-0.308-1.47,0.305-1.914c3.009-2.182,5.605-2.658,7.713-1.424c6.408,3.755,4.323,23.135,4.065,25.333    C415.367,269.331,414.774,269.845,414.089,269.845z"/>
		<path style="fill:#251626;" d="M409.533,345.169c-0.455,0-0.901-0.228-1.162-0.64c-1.495-2.377-0.526-9.457-0.194-11.572    c0.118-0.747,0.811-1.253,1.567-1.14c0.748,0.118,1.258,0.819,1.142,1.569c-0.608,3.86-0.83,8.673-0.194,9.682    c0.403,0.64,0.21,1.488-0.43,1.89C410.035,345.102,409.782,345.169,409.533,345.169z"/>
		<path style="fill:#251626;" d="M85.511,444.487c-0.385,0-0.77-0.163-1.04-0.479c-0.493-0.573-0.427-1.44,0.147-1.933    c2.132-1.828,9.278-1.895,11.416-1.887c0.758,0.008,1.365,0.626,1.358,1.384c-0.007,0.755-0.594,1.491-1.383,1.357    c-3.927-0.013-8.702,0.45-9.607,1.229C86.144,444.377,85.827,444.487,85.511,444.487z"/>
		<path style="fill:#251626;" d="M100.739,444.192c-0.385,0-0.77-0.163-1.041-0.479c-0.493-0.576-0.426-1.44,0.15-1.933    c2.131-1.823,9.292-1.871,11.415-1.887c0.756,0.005,1.365,0.626,1.358,1.381c-0.007,0.76-0.725,1.285-1.383,1.36    c-3.936-0.016-8.702,0.452-9.608,1.229C101.372,444.085,101.055,444.192,100.739,444.192z"/>
		<path style="fill:#251626;" d="M95.483,453.111c-0.385,0-0.77-0.163-1.04-0.479c-0.493-0.573-0.427-1.437,0.147-1.933    c2.131-1.828,9.275-1.887,11.416-1.887c0.758,0.008,1.365,0.626,1.358,1.384c-0.007,0.752-0.62,1.357-1.37,1.357    c-0.161-0.029-0.27-0.003-0.406-0.003c-3.83,0-8.338,0.479-9.213,1.231C96.118,453.001,95.8,453.111,95.483,453.111z"/>
		<path style="fill:#251626;" d="M409.533,325.379c-0.455,0-0.901-0.228-1.162-0.64c-1.495-2.377-0.526-9.457-0.194-11.572    c0.118-0.747,0.811-1.247,1.567-1.14c0.748,0.118,1.258,0.819,1.142,1.569c-0.608,3.86-0.83,8.673-0.194,9.682    c0.403,0.64,0.21,1.488-0.43,1.89C410.035,325.312,409.782,325.379,409.533,325.379z"/>
		<path style="fill:#251626;" d="M418.608,338.399c-0.455,0-0.901-0.228-1.162-0.64c-1.494-2.377-0.526-9.457-0.194-11.572    c0.118-0.747,0.816-1.25,1.567-1.14c0.748,0.118,1.258,0.819,1.142,1.566c-0.606,3.863-0.83,8.675-0.194,9.684    c0.403,0.642,0.21,1.488-0.431,1.89C419.11,338.332,418.857,338.399,418.608,338.399z"/>
		<path style="fill:#251626;" d="M419.204,357.739c-0.455,0-0.901-0.228-1.162-0.64c-1.495-2.377-0.526-9.457-0.194-11.572    c0.118-0.747,0.816-1.25,1.567-1.14c0.748,0.118,1.258,0.819,1.142,1.569c-0.608,3.86-0.83,8.673-0.194,9.682    c0.403,0.64,0.21,1.488-0.43,1.89C419.706,357.672,419.453,357.739,419.204,357.739z"/>
		<path style="fill:#251626;" d="M409.236,364.567c-0.455,0-0.901-0.228-1.162-0.64c-1.495-2.377-0.526-9.457-0.194-11.572    c0.118-0.747,0.816-1.258,1.567-1.14c0.748,0.118,1.258,0.819,1.142,1.569c-0.608,3.86-0.83,8.673-0.194,9.682    c0.403,0.64,0.21,1.488-0.43,1.89C409.738,364.5,409.485,364.567,409.236,364.567z"/>
		<path style="fill:#251626;" d="M418.014,315.221c-0.455,0-0.901-0.228-1.162-0.64c-1.494-2.377-0.526-9.457-0.194-11.572    c0.119-0.747,0.814-1.253,1.567-1.14c0.748,0.118,1.258,0.819,1.142,1.566c-0.606,3.863-0.83,8.675-0.194,9.684    c0.403,0.642,0.21,1.488-0.431,1.89C418.516,315.154,418.263,315.221,418.014,315.221z"/>
	</g>
	<g>
		<path style="fill:#F7C67C;" d="M485.53,117.878c0,0-37.95-47.723-78.553-29.259c-33.66,15.307-51.136,67.922-16.565,92.883    l-3.101,22.815l21.077-14.047c3.222,1.016,6.629,1.911,10.334,2.604C488.205,205.867,505.904,146.234,485.53,117.878z"/>
		<path style="fill:#241726;" d="M406.717,146.084c-4.586,0-8.316-3.731-8.316-8.316c0-4.585,3.73-8.316,8.316-8.316    c4.586,0,8.316,3.731,8.316,8.316C415.033,142.352,411.303,146.084,406.717,146.084z M406.717,131.914    c-3.228,0-5.854,2.625-5.854,5.854c0,3.229,2.627,5.854,5.854,5.854c3.228,0,5.854-2.625,5.854-5.854    C412.571,134.539,409.944,131.914,406.717,131.914z"/>
		<path style="fill:#241726;" d="M432.521,152c-4.586,0-8.316-3.731-8.316-8.316s3.73-8.316,8.316-8.316    c4.586,0,8.316,3.731,8.316,8.316S437.106,152,432.521,152z M432.521,137.83c-3.228,0-5.854,2.625-5.854,5.854    c0,3.229,2.627,5.854,5.854,5.854c3.228,0,5.854-2.625,5.854-5.854C438.375,140.455,435.748,137.83,432.521,137.83z"/>
		<path style="fill:#241726;" d="M463.584,160.047c-4.586,0-8.316-3.731-8.316-8.316s3.73-8.316,8.316-8.316    c4.586,0,8.316,3.731,8.316,8.316S468.17,160.047,463.584,160.047z M463.584,145.877c-3.228,0-5.854,2.625-5.854,5.854    c0,3.229,2.627,5.854,5.854,5.854c3.228,0,5.854-2.625,5.854-5.854C469.438,148.502,466.812,145.877,463.584,145.877z"/>
	</g>
</g>















</svg>
